<ttFont>
<head>
    <!-- Most of this table will be recalculated by the compiler -->
    <tableVersion value="1.0"/>
    <fontRevision value="0.0"/>
    <checkSumAdjustment value="0x53173dd3"/>
    <magicNumber value="0x5f0f3cf5"/>
    <flags value="00000000 00000011"/>
    <unitsPerEm value="2048"/>
    <created value="Thu May  4 15:29:50 2017"/>
    <modified value="Thu May  4 22:29:54 2017"/>
    <xMin value="-184"/>
    <yMin value="-840"/>
    <xMax value="1450"/>
    <yMax value="2318"/>
<macStyle value="00000000 00000000"/>
    <lowestRecPPEM value="3"/>
    <fontDirectionHint value="2"/>
    <indexToLocFormat value="0"/>
    <glyphDataFormat value="0"/>
  </head>
          <CharString index="0">
            1178 609 rmoveto
            0 callsubr
            -225 vlineto
            14 callgsubr
            -545 -422 rmoveto
            -192 -108 146 278 hvcurveto
            221 vlineto
            278 108 146 192 192 108 -146 -278 199 callsubr
            -278 -108 -146 -192 vhcurveto
            return
          </CharString>
          <CharString index="1">
            645 933 rmoveto
            153 92 -108 -178 hvcurveto
            -496 hlineto
            179 94 107 157 vhcurveto
            248 -636 rmoveto
            -81 -23 -93 -53 -121 hhcurveto
            -159 -103 108 167 hvcurveto
            53 722 133 vlineto
            304 -179 189 -288 -291 -193 -190 -287 vhcurveto
            -171 vlineto
            -312 180 -179 312 245 186 131 188 26 vhcurveto
            return
          </CharString>
          <CharString index="2">
            rmoveto
            -233 -638 hlineto
            -166 -102 -108 -156 -150 -72 83 176 vhcurveto
            653 -233 -709 vlineto
            -266 129 -142 238 161 121 75 134 56 142 callsubr
            hlineto
            return
          </CharString>
          <CharString index="3">
            125 -27 46 -37 -72 vvcurveto
            -85 -80 -56 -127 -124 -83 49 86 -20 156 callgsubr
            -198 16 170 -119 268 hhcurveto
            275 175 137 213 164 -97 93 -219 47 hvcurveto
            -163 35 rlineto
            -119 26 -50 40 70 vvcurveto
            82 77 54 117 113 79 -51 -82 16 vhcurveto
            220 hlineto
            197 -15 -159 116 -251 hhcurveto
            -259 -168 -130 -204 return
          </CharString>
          <CharString index="4">
            633 189 rmoveto
            -181 -103 120 212 hvcurveto
            922 -241 -936 vlineto
            -337 195 -199 330 330 195 199 337 vhcurveto
            936 -241 -922 vlineto
            -212 -103 -120 -181 vhcurveto
            return
          </CharString>
          <CharString index="5">
            rmoveto
            -645 422 608 197 -608 402 645 211 -887 -1443 887 hlineto
            return
          </CharString>
          <CharString index="6">
            79 67 67 82 81 -67 -86 callgsubr
            return
          </CharString>
          <CharString index="7">
            -278 hlineto
            -445 -1443 rlineto
            242 hlineto
            105 379 rlineto
            458 hlineto
            return
          </CharString>
          <CharString index="8">
            rmoveto
            -81 -23 -93 -53 -121 hhcurveto
            -159 -103 108 167 hvcurveto
            53 722 133 vlineto
            304 -179 189 -288 -291 -193 -190 -287 vhcurveto
            -171 vlineto
            -312 180 -179 312 245 186 131 188 26 vhcurveto
            -720 350 rmoveto
            179 94 107 157 153 92 -108 -178 vhcurveto
            endchar
          </CharString>
          <CharString index="9">
            rmoveto
            280 -459 -174 234 -747 -213 -174 763 174 -326 314 vlineto
            253 133 138 253 60 72 -12 -19 49 vhcurveto
            253 vlineto
            15 -38 -57 8 -62 hhcurveto
            -208 -122 -98 -211 -45 hvcurveto
            endchar
          </CharString>
          <CharString index="10">
            rmoveto
            76 callgsubr
            76 -62 63 -73 125 callgsubr
            438 hmoveto
            -80 callgsubr
            return
          </CharString>
          <CharString index="11">
            102 callsubr
            150 hhcurveto
            149 96 121 188 195 callgsubr
            -48 -56 -82 -45 -68 callsubr
            return
          </CharString>
          <CharString index="12">
            180 callsubr
            -162 -101 117 189 198 callsubr
            189 101 117 162 162 101 -117 -189 vhcurveto
            230 13 rmoveto
            298 -191 188 -302 -302 -191 -188 -298 vhcurveto
            -16 callgsubr
            endchar
          </CharString>
          <CharString index="13">
            258 104 135 197 162 111 -120 -182 4 vhcurveto
            245 hlineto
            327 -4 -193 193 -321 hhcurveto
            -350 -205 -225 -386 hvcurveto
            -279 vlineto
            return
          </CharString>
          <CharString index="14">
            rmoveto
            183 28 120 113 173 hhcurveto
            200 122 -148 -274 20 hvcurveto
            -523 -199 524 hlineto
            -289 -16 -122 -157 -205 hhcurveto
            -176 -118 104 174 -27 hvcurveto
            -236 hlineto
            -301 23 217 -195 316 hhcurveto
            376 216 273 478 479 -216 272 -376 -309 -225 -208 -305 -21 hvcurveto
            endchar
          </CharString>
          <CharString index="15">
            754 hmoveto
            559 vlineto
            470 884 77 callsubr
            -319 -634 rlineto
            -16 hlineto
            -319 634 77 callsubr
            470 -884 rlineto
            -559 vlineto
            return
          </CharString>
          <CharString index="16">
            -94 callsubr
            -386 205 -225 350 315 203 195 307 vhcurveto
            -245 hlineto
            -176 -3 -104 -108 -167 hhcurveto
            return
          </CharString>
          <CharString index="17">
            rmoveto
            30 callgsubr
            -63 -63 -76 -75 103 callgsubr
            438 hmoveto
            -62 callsubr
            endchar
          </CharString>
          <CharString index="18">
            145 callgsubr
            274 45 callgsubr
            -240 -347 rlineto
            return
          </CharString>
          <CharString index="19">
            rmoveto
            -224 hlineto
            -108 -815 rlineto
            -29 hlineto
            -141 813 rlineto
            -200 hlineto
            -141 -813 rlineto
            -29 hlineto
            -109 815 rlineto
            -223 hlineto
            226 -1095 rlineto
            208 hlineto
            163 784 rlineto
            11 hlineto
            162 -784 rlineto
            208 hlineto
            return
          </CharString>
          <CharString index="20">
            rmoveto
            251 -26 -165 139 -268 hhcurveto
            -313 -177 -183 -325 hvcurveto
            -126 vlineto
            -326 177 -182 313 267 167 138 245 25 192 callgsubr
            -121 -20 -85 -66 -128 hhcurveto
            -164 -90 118 215 hvcurveto
            84 vlineto
            215 90 118 164 127 87 -69 -125 19 vhcurveto
            return
          </CharString>
          <CharString index="21">
            rmoveto
            600 -17 hlineto
            15 callgsubr
            600 217 rmoveto
            -600 4 hlineto
            278 108 146 192 192 108 -146 -278 vhcurveto
            -845 -223 rmoveto
            14 callgsubr
            0 callsubr
            endchar
          </CharString>
          <CharString index="22">
            -105 -33 -47 -46 -77 hhcurveto
            -104 -61 107 185 -1 hvcurveto
            15 499 87 vlineto
            347 -119 198 -208 -110 -85 -57 -110 -53 vhcurveto
            -5 hlineto
            111 -47 -83 56 -114 hhcurveto
            -173 -127 -134 -201 -17 hvcurveto
            184 hlineto
            89 9 51 55 69 hhcurveto
            89 49 -65 -126 hvcurveto
            -81 vlineto
            -164 -17 rlineto
            -207 -22 -105 -109 -192 vvcurveto
            -198 116 -133 172 130 99 74 138 54 vhcurveto
            5 hlineto
            -135 48 95 -77 117 hhcurveto
            172 112 118 228 44 hvcurveto
            return
          </CharString>
          <CharString index="23">
            rmoveto
            156 82 -187 -358 -358 -82 -187 -156 -157 -82 187 358 358 82 187 157 hvcurveto
            -555 -435 rmoveto
            612 -199 -1443 199 620 117 vlineto
            -443 27 140 -206 267 hhcurveto
            294 158 258 493 492 -158 258 -294 -261 -143 -208 -433 -30 hvcurveto
            endchar
          </CharString>
          <CharString index="24">
            -82 callgsubr
            endchar
          </CharString>
          <CharString index="25">
            rmoveto
            -183 -4 -100 -113 -159 hhcurveto
            -159 -100 113 183 -4 hvcurveto
            171 vmoveto
            177 7 100 109 156 hhcurveto
            156 100 -109 -177 7 hvcurveto
            -756 -174 rmoveto
            -76 callgsubr
            -78 callgsubr
            vhcurveto
            167 vlineto
            298 -191 188 -302 -302 -191 -188 -298 vhcurveto
            endchar
          </CharString>
          <CharString index="26">
            166 104 110 158 151 73 -85 -175 vhcurveto
            -651 233 708 vlineto
            263 -130 144 -239 -162 -124 -76 -133 -55 vhcurveto
            return
          </CharString>
          <CharString index="27">
            186 -344 909 -576 -186 349 -723 -361 -186 vlineto
            return
          </CharString>
          <CharString index="28">
            -105 callsubr
            endchar
          </CharString>
          <CharString index="29">
            298 508 rmoveto
            -25 580 rlineto
            17 hlineto
            257 -749 rlineto
            172 hlineto
            257 749 rlineto
            17 hlineto
            -25 -580 rlineto
            -508 206 -50 callgsubr
            -255 vlineto
            -278 -854 rlineto
            -15 hlineto
            -280 854 rlineto
            -254 -1443 206 hlineto
            return
          </CharString>
          <CharString index="30">
            110 28 76 91 107 vvcurveto
            191 -160 114 -268 -258 -161 -122 -218 -25 vhcurveto
            221 hlineto
            100 18 78 52 128 hhcurveto
            124 76 -54 -89 -89 -74 -52 -126 hvcurveto
            -155 -165 158 hlineto
            152 81 -53 -98 -97 -91 -63 -140 -134 -82 53 107 -28 hvcurveto
            -225 hlineto
            return
          </CharString>
          <CharString index="31">
            734 -17 rmoveto
            252 155 176 292 hvcurveto
            195 vlineto
            291 -155 177 -252 -158 -112 -71 -127 -41 vhcurveto
            -20 602 -241 -1518 237 180 20 hlineto
            -128 45 111 -69 159 hhcurveto
            -83 203 rmoveto
            -156 -98 107 172 hvcurveto
            171 vlineto
            173 98 107 156 156 98 -108 -172 vhcurveto
            -171 vlineto
            -172 -98 -107 -156 vhcurveto
            return
          </CharString>
          <CharString index="32">
            rmoveto
            325 187 194 342 hvcurveto
            771 37 vlineto
            133 79 74 125 hvcurveto
            225 -189 -177 vlineto
            -53 -33 -29 -60 vhcurveto
            -209 -937 hlineto
            -203 -98 -114 -172 -172 -98 114 203 vhcurveto
            937 -242 -936 vlineto
            -342 186 -194 326 vhcurveto
            endchar
          </CharString>
          <CharString index="33">
            196 vhcurveto
            -182 hlineto
            -61 callsubr
            return
          </CharString>
          <CharString index="34">
            rmoveto
            134 94 148 callsubr
            -35 -42 -54 -90 -57 callgsubr
            return
          </CharString>
          <CharString index="35">
            rmoveto
            -540 238 -50 callgsubr
            -509 vlineto
            -297 -192 -179 -276 -201 119 -157 192 -55 hvcurveto
            -373 -575 rlineto
            268 hlineto
            344 540 rlineto
            -27 192 rmoveto
            -173 -104 96 159 160 104 95 173 hvcurveto
            237 -510 hlineto
            endchar
          </CharString>
          <CharString index="36">
            152 callgsubr
            -221 hlineto
            -163 -196 rlineto
            -16 hlineto
            -163 196 rlineto
            -221 hlineto
            283 -324 rlineto
            218 hlineto
            return
          </CharString>
          <CharString index="37">
            rmoveto
            166 -696 -166 vlineto
            return
          </CharString>
          <CharString index="38">
            1095 -458 vlineto
            -251 -161 -142 -226 -156 97 -119 155 -39 hvcurveto
            -297 -413 rlineto
            266 hlineto
            264 375 rlineto
            156 -375 hlineto
            908 vmoveto
            -360 -208 vlineto
            -124 -79 71 107 113 79 69 124 hvcurveto
            endchar
          </CharString>
          <CharString index="39">
            -1 callgsubr
            -121 -190 hvcurveto
            167 hlineto
            98 28 49 55 vhcurveto
            return
          </CharString>
          <CharString index="40">
            1176 832 -64 callsubr
            return
          </CharString>
          <CharString index="41">
            rmoveto
            -241 -936 hlineto
            -337 195 -199 330 330 195 199 337 vhcurveto
            936 -241 -922 vlineto
            -212 -103 -120 -181 -181 -103 120 212 vhcurveto
            endchar
          </CharString>
          <CharString index="42">
            rmoveto
            -62 callsubr
            -438 hmoveto
            30 callgsubr
            -63 -63 -76 -75 103 callgsubr
            return
          </CharString>
          <CharString index="43">
            rmoveto
            186 -75 99 -142 -107 -81 -68 -112 -25 vhcurveto
            -25 hlineto
            115 -23 -70 65 -102 hhcurveto
            -105 -77 -67 -119 -25 hvcurveto
            -25 164 -204 -1095 200 747 hlineto
            103 50 65 78 75 42 -56 -101 vhcurveto
            -758 199 747 vlineto
            103 48 65 77 74 43 -57 -100 vhcurveto
            -758 200 vlineto
            return
          </CharString>
          <CharString index="44">
            54 callgsubr
            -63 -63 -76 return
          </CharString>
          <CharString index="45">
            73 63 63 75 76 -63 -66 callgsubr
            return
          </CharString>
          <CharString index="46">
            173 callgsubr
            -75 -100 179 callgsubr
            return
          </CharString>
          <CharString index="47">
            -104 58 vlineto
            94 -55 callsubr
            return
          </CharString>
          <CharString index="48">
            1134 hmoveto
            -50 callgsubr
            -238 -603 -526 603 -238 -1443 238 629 526 -629 vlineto
            return
          </CharString>
          <CharString index="49">
            1013 211 -712 15 hlineto
            696 1050 rlineto
            167 -976 -211 676 -15 vlineto
            -697 -1050 rlineto
            return
          </CharString>
          <CharString index="50">
            rmoveto
            66 -158 29 -176 -201 vvcurveto
            -264 -94 -113 -169 -142 -99 74 212 vhcurveto
            626 -222 -655 vlineto
            -323 172 -139 294 vhcurveto
            322 -1 168 217 388 vvcurveto
            182 -38 209 -59 122 vhcurveto
            endchar
          </CharString>
          <CharString index="51">
            76 -63 63 -73 -73 -62 -63 -76 return
          </CharString>
          <CharString index="52">
            165 callgsubr
            -71 -39 -56 6 8 -21 -33 callsubr
            95 74 124 108 -67 61 -123 4 hvcurveto
            return
          </CharString>
          <CharString index="53">
            633 162 rmoveto
            -153 -91 107 177 hvcurveto
            496 hlineto
            -177 -94 -107 -158 vhcurveto
            -247 636 rmoveto
            81 23 93 53 121 hhcurveto
            159 103 -108 -166 hvcurveto
            -56 -722 -133 vlineto
            -303 179 -188 288 291 192 190 288 vhcurveto
            170 vlineto
            312 -179 179 -312 -245 -186 -131 -188 -27 vhcurveto
            return
          </CharString>
          <CharString index="54">
            rmoveto
            149 628 rlineto
            89 -628 hlineto
            620 644 rmoveto
            210 -859 vlineto
            -380 -1443 rlineto
            242 hlineto
            92 387 rlineto
            285 -387 620 211 -400 416 364 199 -364 407 hlineto
            endchar
          </CharString>
          <CharString index="55">
            734 -89 callsubr
            655 -201 rmoveto
            -247 hlineto
            -268 -874 rlineto
            -15 hlineto
            -268 874 rlineto
            -255 hlineto
            393 -1103 -15 -49 rlineto
            -103 -34 -59 -41 -107 hhcurveto
            -16 -35 1 2 -10 hvcurveto
            -193 vlineto
            -1 11 44 -1 38 hhcurveto
            242 115 92 276 95 hvcurveto
            endchar
          </CharString>
          <CharString index="56">
            886 190 -584 15 hlineto
            576 730 rlineto
            160 -872 -189 592 -16 vlineto
            -598 -745 rlineto
            return
          </CharString>
          <CharString index="57">
            rmoveto
            -218 hlineto
            -283 -324 rlineto
            221 139 callsubr
            163 -196 rlineto
            221 hlineto
            return
          </CharString>
          <CharString index="58">
            -63 -50 -94 -40 -103 hhcurveto
            -146 -74 70 150 hvcurveto
            307 -233 -341 vlineto
            -245 147 -146 242 121 103 36 59 71 vhcurveto
            16 -458 return
          </CharString>
          <CharString index="59">
            -107 callgsubr
            -68 1455 -89 callgsubr
            return
          </CharString>
          <CharString index="60">
            rmoveto
            -270 -351 rlineto
            234 hlineto
            154 216 rlineto
            17 106 callsubr
            233 126 callgsubr
            endchar
          </CharString>
          <CharString index="61">
            203 callsubr
            67 67 82 81 -67 67 -79 hvcurveto
            -184 740 rmoveto
            172 619 rlineto
            10 hlineto
            170 -619 rlineto
            416 -571 rmoveto
            -445 1443 rlineto
            -100 callsubr
            104 -379 rlineto
            endchar
          </CharString>
          <CharString index="62">
            754 hmoveto
            1232 422 211 -1086 -211 422 -1232 return
          </CharString>
          <CharString index="63">
            hlineto
            -155 -216 rlineto
            -16 hlineto
            -155 216 rlineto
            -234 hlineto
            270 -350 rlineto
            return
          </CharString>
          <CharString index="64">
            rmoveto
            48 41 7 12 34 hvcurveto
            142 vlineto
            -4 -15 -30 -4 -24 hhcurveto
            -75 -48 41 65 69 44 63 109 85 hvcurveto
            143 113 70 143 180 vvcurveto
            109 callgsubr
            -297 190 -189 294 31 28 4 6 25 vhcurveto
            -14 vlineto
            -84 -49 -50 -79 -82 vvcurveto
            -124 106 -88 149 vhcurveto
            -196 1372 55 callgsubr
            endchar
          </CharString>
          <CharString index="65">
            -17 -43 -41 -38 -29 callgsubr
            return
          </CharString>
          <CharString index="66">
            rmoveto
            -195 -105 151 273 hvcurveto
            221 vlineto
            273 105 151 195 195 105 -151 -273 199 callsubr
            -273 -105 -151 -195 vhcurveto
            188 -630 rmoveto
            48 52 8 13 31 hvcurveto
            140 vlineto
            -5 -15 -27 -3 -31 hhcurveto
            -71 -50 44 62 73 38 51 137 105 hvcurveto
            176 139 69 166 259 vvcurveto
            225 vlineto
            397 -203 241 -342 -342 -203 -241 -397 vhcurveto
            -225 vlineto
            -384 198 -250 310 50 47 7 13 26 vhcurveto
            -16 vlineto
            -101 -66 -43 -66 -87 vvcurveto
            -120 100 -83 146 vhcurveto
            endchar
          </CharString>
          <CharString index="67">
            rmoveto
            179 94 107 157 153 92 -108 -178 vhcurveto
            226 -156 rmoveto
            133 vlineto
            304 -179 189 -288 -291 -193 -190 -287 vhcurveto
            -171 vlineto
            -281 146 -173 256 -32 vhcurveto
            -50 -116 rlineto
            -104 59 vlineto
            93 39 58 callsubr
            213 21 156 124 24 171 rlinecurve
            130 callgsubr
            vlineto
            endchar
          </CharString>
          <CharString index="68">
            898 -6 rmoveto
            72 75 9 11 53 hvcurveto
            181 vlineto
            -7 -45 -63 -5 -50 hhcurveto
            -139 -52 44 108 hvcurveto
            760 -576 -188 343 -594 vlineto
            -234 114 -85 268 vhcurveto
            return
          </CharString>
          <CharString index="69">
            180 callsubr
            -71 -59 22 42 -44 vhcurveto
            414 525 rlineto
            15 -41 8 -47 -54 vvcurveto
            -526 hmoveto
            189 101 117 162 70 59 -22 -41 44 vhcurveto
            -413 -526 rlineto
            -15 41 -8 48 53 vvcurveto
            766 618 rmoveto
            -146 hlineto
            -51 -65 rlineto
            56 -80 -104 31 -122 178 callgsubr
            -130 36 -109 66 -82 vhcurveto
            -112 -143 rlineto
            144 hlineto
            52 66 rlineto
            -57 80 105 -31 122 hhcurveto
            185 callgsubr
            130 -36 109 -67 82 vhcurveto
            endchar
          </CharString>
          <CharString index="70">
            rmoveto
            260 -549 rlineto
            272 hlineto
            -291 592 rlineto
            160 58 102 156 188 vvcurveto
            278 -187 171 -304 vhcurveto
            -508 -1443 241 549 hlineto
            693 vmoveto
            239 hlineto
            173 100 -92 -159 -159 -102 -93 -176 hvcurveto
            -234 hlineto
            endchar
          </CharString>
          <CharString index="71">
            -201 rmoveto
            -229 -179 -20 hlineto
            122 -40 -122 76 -159 hhcurveto
            -260 -159 -177 -291 hvcurveto
            -179 vlineto
            -289 157 -179 253 161 126 77 121 39 vhcurveto
            20 -198 hlineto
            -153 -93 -82 -171 -130 -97 51 79 -20 192 callgsubr
            -189 20 180 -117 272 hhcurveto
            311 189 156 257 hvcurveto
            -752 635 rmoveto
            171 101 109 158 157 101 -109 -171 vhcurveto
            -154 vlineto
            -171 -101 -109 -157 -158 -101 109 171 vhcurveto
            endchar
          </CharString>
          <CharString index="72">
            52 callgsubr
            -154 -216 rlineto
            -17 hlineto
            -155 216 rlineto
            -233 hlineto
            270 -350 rlineto
            return
          </CharString>
          <CharString index="73">
            -37 callgsubr
            143 133 196 vhcurveto
            return
          </CharString>
          <CharString index="74">
            hvcurveto
            -126 vlineto
            -11 42 42 -6 52 hhcurveto
            157 return
          </CharString>
          <CharString index="75">
            rmoveto
            16 callgsubr
            -203 146 -141 231 231 146 141 203 vhcurveto
            -183 hlineto
            -109 -1 -71 200 callgsubr
            endchar
          </CharString>
          <CharString index="76">
            82 103 vvcurveto
            119 -93 79 -131 -60 -56 -13 -15 -36 vhcurveto
            return
          </CharString>
          <CharString index="77">
            -106 callgsubr
            -127 703 -98 callgsubr
            return
          </CharString>
          <CharString index="78">
            164 callsubr
            -146 141 -231 -231 -146 -141 -203 vhcurveto
            184 hlineto
            109 1 70 77 122 hhcurveto
            122 71 -77 -109 1 hvcurveto
            return
          </CharString>
          <CharString index="79">
            63 -73 -73 -62 -63 -76 -75 62 return
          </CharString>
          <CharString index="80">
            -33 -48 -43 -42 -41 -61 152 callsubr
            -131 -60 -56 -13 -15 -36 vhcurveto
            return
          </CharString>
          <CharString index="81">
            rmoveto
            174 97 111 152 152 92 -111 -174 vhcurveto
            -161 vlineto
            -174 -92 -110 -152 -152 -97 110 174 vhcurveto
            865 -284 rmoveto
            -4 -16 -24 -3 -17 hhcurveto
            -64 -26 34 91 hvcurveto
            791 -221 -167 -20 vlineto
            118 -47 -103 67 -152 hhcurveto
            -247 -155 -181 -291 hvcurveto
            -185 vlineto
            -290 158 -185 246 157 104 68 123 46 vhcurveto
            19 hlineto
            -121 16 86 -61 133 hhcurveto
            48 56 6 9 23 hvcurveto
            endchar
          </CharString>
          <CharString index="82">
            rmoveto
            5 callsubr
            138 callgsubr
            hvcurveto
            429 hmoveto
            5 callsubr
            138 callgsubr
            hvcurveto
            return
          </CharString>
          <CharString index="83">
            633 -22 rmoveto
            280 192 140 228 29 hvcurveto
            -224 hlineto
            -113 -31 -98 -60 -149 hhcurveto
            -150 -94 59 95 93 85 54 144 hvcurveto
            162 168 -156 hlineto
            -136 -77 50 88 92 87 55 144 141 89 -55 -105 21 hvcurveto
            223 hlineto
            227 -28 -168 123 -277 hhcurveto
            -283 -176 -120 -196 -110 65 -83 113 -33 hvcurveto
            -15 vlineto
            -133 -37 -75 -88 -122 vvcurveto
            -205 187 -130 293 vhcurveto
            return
          </CharString>
          <CharString index="84">
            rmoveto
            197 hlineto
            91 363 rlineto
            -263 hlineto
            -236 -346 rmoveto
            95 callsubr
            -59 -60 -73 -72 59 -60 70 hvcurveto
            686 hmoveto
            70 59 60 72 73 -59 193 callsubr
            endchar
          </CharString>
          <CharString index="85">
            1918 187 callgsubr
            return
          </CharString>
          <CharString index="86">
            591 -29 rmoveto
            290 174 172 292 hvcurveto
            1008 -752 -208 510 -796 vlineto
            -160 -81 -88 -144 -129 -90 83 126 -4 vhcurveto
            -234 hlineto
            -259 1 183 -170 276 hhcurveto
            return
          </CharString>
          <CharString index="87">
            80 75 callgsubr
            -80 -79 -66 -67 -82 -81 66 -67 79 hvcurveto
            endchar
          </CharString>
          <CharString index="88">
            75 54 callgsubr
            return
          </CharString>
          <CharString index="89">
            rmoveto
            82 46 -150 150 hhcurveto
            149 96 96 callgsubr
            -1 -27 -47 -56 -82 -45 -1 callgsubr
            10 callsubr
            28 50 55 vhcurveto
            endchar
          </CharString>
          <CharString index="90">
            -41 callgsubr
            -725 183 callgsubr
            return
          </CharString>
          <CharString index="91">
            -45 callsubr
            vlineto
            return
          </CharString>
          <CharString index="92">
            -838 rmoveto
            -171 -97 -108 -157 -156 -97 107 172 112 callsubr
            156 157 97 -107 -172 vhcurveto
            -506 285 rmoveto
            51 callsubr
            vlineto
            -126 41 112 -72 158 hhcurveto
            252 156 105 callsubr
            -156 177 -252 181 callgsubr
            vhcurveto
            endchar
          </CharString>
          <CharString index="93">
            650 -23 rmoveto
            284 170 142 234 29 hvcurveto
            -221 hlineto
            -114 -25 -89 -65 -144 hhcurveto
            -174 -102 109 196 -11 hvcurveto
            452 165 -449 hlineto
            179 15 103 98 166 hhcurveto
            144 88 -72 -112 26 hvcurveto
            221 hlineto
            230 -30 -172 150 -281 hhcurveto
            -328 -188 -206 -361 -366 188 -207 328 hvcurveto
            return
          </CharString>
          <CharString index="94">
            74 124 108 -67 61 return
          </CharString>
          <CharString index="95">
            rmoveto
            86 43 -146 161 hhcurveto
            146 89 113 184 hvcurveto
            -163 hlineto
            -99 -1 -26 -42 -59 -86 -43 144 -161 hhcurveto
            -146 93 callsubr
            26 44 59 hhcurveto
            11 -229 -98 callgsubr
            endchar
          </CharString>
          <CharString index="96">
            -566 -9 callgsubr
          </CharString>
          <CharString index="97">
            117 callgsubr
            -27 -167 rmoveto
            29 hlineto
            161 51 -131 -418 -432 -50 -128 -162 hvcurveto
            -29 hlineto
            443 -167 rmoveto
            570 185 -368 16 hlineto
            362 1075 rlineto
            167 -543 -185 348 -16 vlineto
            -369 -1075 rlineto
            endchar
          </CharString>
          <CharString index="98">
            651 vlineto
            162 93 100 149 143 69 -82 -167 vhcurveto
            -1031 233 1077 vlineto
            262 -127 145 -223 -164 -120 -79 -142 -54 vhcurveto
            -15 hlineto
            -3 12 rlineto
            137 -20 -72 64 -154 hhcurveto
            -46 -49 -6 -9 -24 hvcurveto
            -181 vlineto
            4 18 21 3 18 hhcurveto
            69 25 -38 -82 hvcurveto
            -800 vlineto
            endchar
          </CharString>
          <CharString index="99">
            hmoveto
            -2 callgsubr
            return
          </CharString>
          <CharString index="100">
            586 -3 callgsubr
            return
          </CharString>
          <CharString index="101">
            rmoveto
            72 97 callsubr
            -72 125 callgsubr
            438 61 callsubr
          </CharString>
          <CharString index="102">
            rmoveto
            -2 callgsubr
            439 hmoveto
            30 callgsubr
            -63 -63 -76 -75 103 callgsubr
            endchar
          </CharString>
          <CharString index="103">
            rmoveto
            -235 hlineto
            -278 -250 174 callgsubr
            157 146 rlineto
            17 hlineto
            157 -146 rlineto
            229 hlineto
            return
          </CharString>
          <CharString index="104">
            257 hmoveto
            736 -285 213 473 -162 907 -760 hlineto
            -10 -165 -15 -212 -13 -194 -13 -187 -40 -109 -68 -40 rrcurveto
            -82 -473 214 hlineto
            110 473 rmoveto
            20 vlineto
            45 51 29 81 12 120 12 113 16 212 5 123 rrcurveto
            330 -720 hlineto
            endchar
          </CharString>
          <CharString index="105">
            1450 466 rmoveto
            188 return
          </CharString>
          <CharString index="106">
            494 188 rmoveto
            365 203 vlineto
            149 74 -68 -115 -115 -74 -67 -149 hvcurveto
            -203 550 rmoveto
            204 446 153 -446 423 -233 -423 -239 -153 239 -942 467 vlineto
            274 148 138 231 232 -148 137 -274 hvcurveto
            endchar
          </CharString>
          <CharString index="107">
            225 vlineto
            401 -206 237 -339 -339 -206 -237 -401 vhcurveto
            return
          </CharString>
          <CharString index="108">
            rmoveto
            44 callgsubr
            223 147 133 191 vhcurveto
            -172 hlineto
            -107 -1 -80 -73 -117 hhcurveto
            -117 -80 73 107 -1 hvcurveto
            endchar
          </CharString>
          <CharString index="109">
            rmoveto
            6 callgsubr
          </CharString>
          <CharString index="110">
            1115 108 callgsubr
            -846 vlineto
            -40 -877 rlineto
            -251 -12 -48 -100 -110 hhcurveto
            -19 -23 3 5 -13 hvcurveto
            -223 vlineto
            -7 22 34 -5 30 hhcurveto
            224 110 177 384 19 hvcurveto
            34 683 rlineto
            411 -1232 166 -285 212 505 hlineto
            endchar
          </CharString>
          <CharString index="111">
            rmoveto
            79 66 67 81 82 -66 68 callgsubr
            endchar
          </CharString>
          <CharString index="112">
            71 57 59 73 73 -57 59 -71 return
          </CharString>
          <CharString index="113">
            -188 187 -718 -187 -189 654 189 -234 714 144 callgsubr
            return
          </CharString>
          <CharString index="114">
            -101 callsubr
            endchar
          </CharString>
          <CharString index="115">
            113 1095 rmoveto
            390 -1095 rlineto
            262 hlineto
            388 1095 rlineto
            -247 hlineto
            -262 -864 rlineto
            -16 hlineto
            -265 864 rlineto
            return
          </CharString>
          <CharString index="116">
            -220 hlineto
            -164 -196 rlineto
            -16 hlineto
            -163 132 callgsubr
            return
          </CharString>
          <CharString index="117">
            -122 -189 hvcurveto
            167 hlineto
            97 return
          </CharString>
          <CharString index="118">
            rmoveto
            165 -696 -165 vlineto
            return
          </CharString>
          <CharString index="119">
            -50 callgsubr
            -227 -1443 vlineto
            691 -35 rmoveto
            226 120 151 287 hvcurveto
            1040 -585 -209 359 -811 vlineto
            -170 -39 -67 -87 -82 -45 66 143 -4 vhcurveto
            -219 hlineto
            -279 1 127 -151 228 hhcurveto
            endchar
          </CharString>
          <CharString index="120">
            1644 19 callgsubr
            -620 348 19 callgsubr
            return
          </CharString>
          <CharString index="121">
            71 58 59 73 73 -58 59 -71 -70 -58 -59 -73 -73 58 -59 70 hvcurveto
            return
          </CharString>
          <CharString index="122">
            75 76 -63 -28 callsubr
            return
          </CharString>
          <CharString index="123">
            -2 callsubr
            -725 return
          </CharString>
          <CharString index="124">
            rmoveto
            -80 callsubr
            endchar
          </CharString>
          <CharString index="125">
            1310 rmoveto
            99 191 callgsubr
            -99 -100 -70 -65 -94 -94 70 -65 100 hvcurveto
            return
          </CharString>
          <CharString index="126">
            852 1566 rmoveto
            161 callgsubr
            97 callsubr
            -73 hvcurveto
            -438 hmoveto
            -73 -63 -63 -76 -76 63 42 callgsubr
            return
          </CharString>
          <CharString index="127">
            -1296 rmoveto
            28 callgsubr
          </CharString>
          <CharString index="128">
            80 callgsubr
            105 106 -105 hlineto
            -211 -106 rmoveto
            105 106 -105 hlineto
            return
          </CharString>
          <CharString index="129">
            hlineto
            155 216 rlineto
            return
          </CharString>
          <CharString index="130">
            456 hmoveto
            232 900 454 188 -458 103 hlineto
            93 63 48 122 40 202 -3 -3 31 vhcurveto
            175 vlineto
            3 -23 -214 4 -41 hhcurveto
            -286 -122 -96 -233 hvcurveto
            -91 -293 -188 293 vlineto
            return
          </CharString>
          <CharString index="131">
            -121 160 callgsubr
            -202 145 25 callgsubr
            return
          </CharString>
          <CharString index="132">
            rmoveto
            138 callgsubr
            125 callsubr
            -567 125 55 callsubr
            138 -273 rmoveto
            138 callgsubr
            125 callsubr
            return
          </CharString>
          <CharString index="133">
            hhcurveto
            -149 105 callgsubr
            1 27 50 56 hhcurveto
            endchar
          </CharString>
          <CharString index="134">
            1604 -73 callsubr
            endchar
          </CharString>
          <CharString index="135">
            195 callsubr
            -164 -196 rlineto
            -15 hlineto
            -164 132 callgsubr
            return
          </CharString>
          <CharString index="136">
            1606 -73 callgsubr
            return
          </CharString>
          <CharString index="137">
            -5 -122 -23 -331 -6 -118 rrcurveto
            -204 -15 -41 -119 -103 hhcurveto
            -24 -24 5 3 -13 hvcurveto
            -209 vlineto
            -5 16 32 -7 35 hhcurveto
            232 91 183 337 23 hvcurveto
            6 78 17 236 5 81 rrcurveto
            return
          </CharString>
          <CharString index="138">
            hvcurveto
            -167 hlineto
            -96 return
          </CharString>
          <CharString index="139">
            -17 callsubr
            -1230 return
          </CharString>
          <CharString index="140">
            rmoveto
            201 hlineto
            234 97 callgsubr
            return
          </CharString>
          <CharString index="141">
            -313 -288 -188 288 return
          </CharString>
          <CharString index="142">
            -163 102 -104 202 -45 return
          </CharString>
          <CharString index="143">
            vlineto
            16 -276 rlineto
            -7 hlineto
            -166 191 -212 223 -143 -150 612 -603 612 603 -143 150 -212 -223 -166 -191 rlineto
            -7 hlineto
            16 276 rlineto
            return
          </CharString>
          <CharString index="144">
            rmoveto
            165 -695 -165 vlineto
            endchar
          </CharString>
          <CharString index="145">
            -181 141 -122 229 229 141 122 181 vhcurveto
            return
          </CharString>
          <CharString index="146">
            635 vlineto
            166 104 110 158 151 73 -85 -175 vhcurveto
            return
          </CharString>
          <CharString index="147">
            145 callgsubr
            270 350 rlineto
            return
          </CharString>
          <CharString index="148">
            1826 -58 callgsubr
            endchar
          </CharString>
          <CharString index="149">
            44 111 124 vvcurveto
            209 -129 144 -187 -167 -123 -121 -165 vhcurveto
            return
          </CharString>
          <CharString index="150">
            -13 callsubr
            -124 4 hvcurveto
            return
          </CharString>
          <CharString index="151">
            1505 163 callsubr
            64 42 -27 callsubr
            return
          </CharString>
          <CharString index="152">
            1230 vlineto
            endchar
          </CharString>
          <CharString index="153">
            633 59 callsubr
            return
          </CharString>
          <CharString index="154">
            831 1923 rmoveto
            -107 -1 -80 -73 -117 hhcurveto
            -117 -80 73 107 -1 hvcurveto
            -172 hlineto
            44 callgsubr
            223 147 133 191 vhcurveto
            return
          </CharString>
          <CharString index="155">
            rmoveto
            -225 -1095 225 472 65 hlineto
            417 -472 rlineto
            283 hlineto
            -509 586 484 509 rlineto
            -269 hlineto
            -408 -446 rlineto
            -63 hlineto
            endchar
          </CharString>
          <CharString index="156">
            137 callsubr
            endchar
          </CharString>
          <CharString index="157">
            rmoveto
            -196 143 -133 211 212 143 133 196 vhcurveto
            -182 hlineto
            return
          </CharString>
          <CharString index="158">
            180 -236 -1462 240 546 20 return
          </CharString>
          <CharString index="159">
            -1306 184 56 callgsubr
          </CharString>
          <CharString index="160">
            rmoveto
            197 hlineto
            146 363 rlineto
            return
          </CharString>
          <CharString index="161">
            -81 127 callgsubr
            return
          </CharString>
          <CharString index="162">
            rmoveto
            704 148 -704 hlineto
            return
          </CharString>
          <CharString index="163">
            vhcurveto
            228 hlineto
            return
          </CharString>
          <CharString index="164">
            rmoveto
            -220 160 callsubr
            -50 -187 2 3 -30 vhcurveto
            -194 vlineto
            -3 41 172 -2 56 hhcurveto
            316 122 103 272 hvcurveto
            return
          </CharString>
          <CharString index="165">
            -42 callsubr
            41 99 return
          </CharString>
          <CharString index="166">
            -466 rmoveto
            -101 callsubr
            return
          </CharString>
          <CharString index="167">
            -340 725 -1230 184 45 callsubr
          </CharString>
          <CharString index="168">
            33 callgsubr
            endchar
          </CharString>
          <CharString index="169">
            rmoveto
            140 callgsubr
            137 callgsubr
          </CharString>
          <CharString index="170">
            170 8 56 97 88 hhcurveto
            92 50 -94 -173 2 hvcurveto
            return
          </CharString>
          <CharString index="171">
            99 callsubr
            -76 -100 hhcurveto
            -100 -70 76 103 callsubr
            return
          </CharString>
          <CharString index="172">
            634 1844 rmoveto
            -74 -60 -61 -77 -76 60 -61 74 74 60 61 76 77 -60 61 -74 hvcurveto
            -352 109 55 callsubr
            return
          </CharString>
          <CharString index="173">
            hhcurveto
            65 41 139 callgsubr
            return
          </CharString>
          <CharString index="174">
            1362 11 callsubr
            return
          </CharString>
          <CharString index="175">
            187 31 callsubr
            return
          </CharString>
          <CharString index="176">
            196 -143 133 -211 -211 -143 -133 -196 vhcurveto
            182 hlineto
            111 2 70 76 100 hhcurveto
            100 70 -76 -111 2 hvcurveto
            return
          </CharString>
          <CharString index="177">
            rmoveto
            72 callsubr
          </CharString>
          <CharString index="178">
            1306 200 callsubr
            542 -1117 vlineto
            endchar
          </CharString>
          <CharString index="179">
            -77 callgsubr
            endchar
          </CharString>
          <CharString index="180">
            1634 182 callgsubr
            hlineto
            return
          </CharString>
          <CharString index="181" raw="1">
            48ce3c3c 48480b  
          </CharString>
          <CharString index="182">
            -43 98 callgsubr
            return
          </CharString>
          <CharString index="183">
            625 1802 rmoveto
            16 hlineto
            163 -196 rlineto
            221 hlineto
            -283 324 rlineto
            -218 hlineto
            -283 -324 rlineto
            221 hlineto
            return
          </CharString>
          <CharString index="184">
            rlineto
            -264 hlineto
            return
          </CharString>
          <CharString index="185">
            642 rmoveto
            344 419 132 callsubr
            -344 -419 rlineto
            -6 vlineto
            344 -418 rlineto
            226 hlineto
            -344 418 rlineto
            return
          </CharString>
          <CharString index="186">
            -149 151 hhcurveto
            149 95 121 188 31 callsubr
            return
          </CharString>
          <CharString index="187">
            183 callgsubr
            -1230 -725 162 callsubr
            return
          </CharString>
          <CharString index="188">
            -50 callgsubr
            rmoveto
            return
          </CharString>
          <CharString index="189">
            -51 callsubr
            endchar
          </CharString>
          <CharString index="190">
            -31 callsubr
            endchar
          </CharString>
          <CharString index="191">
            rmoveto
            -228 95 callgsubr
            return
          </CharString>
          <CharString index="192">
            -312 rlineto
            207 hlineto
            return
          </CharString>
          <CharString index="193">
            -4 callgsubr
            endchar
          </CharString>
          <CharString index="194">
            282 181 135 210 125 -84 92 -143 32 hvcurveto
            return
          </CharString>
          <CharString index="195">
            19 callgsubr
            -620 348 rmoveto
            114 callgsubr
            201 hlineto
            return
          </CharString>
          <CharString index="196">
            rmoveto
            -212 306 rlineto
            -234 hlineto
            245 -306 rlineto
            432 -310 -70 callsubr
            endchar
          </CharString>
          <CharString index="197">
            rmoveto
            149 644 rlineto
            -235 hlineto
            -125 -644 rlineto
            endchar
          </CharString>
          <CharString index="198">
            -202 146 -142 231 return
          </CharString>
          <CharString index="199">
            -103 -40 -36 -114 -31 -39 4 2 -23 vhcurveto
            -192 vlineto
            -3 return
          </CharString>
          <CharString index="200">
            -89 -113 -186 hvcurveto
            163 hlineto
            101 1 return
          </CharString>
          <CharString index="201">
            -234 hlineto
            -278 -250 174 callgsubr
            return
          </CharString>
          <CharString index="202">
            70 60 60 72 73 -60 60 -70 -70 return
          </CharString>
          <CharString index="203">
            rmoveto
            183 2800 -183 hlineto
            return
          </CharString>
          <CharString index="204">
            63 63 76 76 -63 63 return
          </CharString>
          <CharString index="205">
            vhcurveto
            -82 -46 112 callgsubr
          </CharString>
          <CharString index="206">
            rmoveto
            -34 callsubr
            -182 hlineto
            173 callgsubr
            return
          </CharString>
          <CharString index="207">
            723 1737 rmoveto
            195 241 rlineto
            -213 hlineto
            -161 -241 rlineto
            89 -511 rmoveto
            121 return
          </CharString>
          <CharString index="208">
            rmoveto
            -196 267 rlineto
            -230 hlineto
            221 -267 rlineto
            return
          </CharString>
          <CharString index="209">
            rmoveto
            82 46 -149 return
          </CharString>
          <CharString index="210">
            111 -2 hvcurveto
            return
          </CharString>
          <CharString index="211">
            123 callsubr
            endchar
          </CharString>
          <CharString index="212">
            177 292 hvcurveto
            195 vlineto
            291 return
          </CharString>
          <CharString index="213">
            hlineto
            155 -216 rlineto
            return
          </CharString>
          <CharString index="214">
            -464 vmoveto
            1266 return
          </CharString>
          <CharString index="215">
            211 201 callgsubr
            return
          </CharString>
          <CharString index="216">
            vhcurveto
            -144 vmoveto
            139 90 109 186 hvcurveto
            67 vlineto
            186 -90 109 -139 -139 return
          </CharString>
          <CharString index="217">
            -445 -1443 rlineto
            242 hlineto
            105 379 rlineto
            458 hlineto
            104 -379 rlineto
            259 hlineto
            return
          </CharString>
          <CharString index="218">
            -99 rlineto
            110 43 69 84 99 vvcurveto
            118 -93 75 -135 -57 -55 -12 -13 -33 vhcurveto
            endchar
          </CharString>
          <CharString index="219">
            vhcurveto
            172 vlineto
            172 97 107 return
          </CharString>
          <CharString index="220">
            -73 140 callsubr
            73 return
          </CharString>
          <CharString index="221">
            209 callsubr
            -260 hlineto
            return
          </CharString>
          <CharString index="222">
            142 202 vhcurveto
            return
          </CharString>
          <CharString index="223">
            rmoveto
            14 30 42 9 39 hhcurveto
            65 41 -32 -48 -44 98 callgsubr
            81 -101 rlineto
            114 return
          </CharString>
          <CharString index="224">
            hlineto
            -35 -118 -120 -92 -146 -20 rrcurveto
            -106 vlineto
            119 10 121 57 79 83 rrcurveto
            return
          </CharString>
          <CharString index="225">
            140 1095 rmoveto
            -192 376 -903 234 903 376 192 vlineto
            endchar
          </CharString>
          <CharString index="226">
            -216 hlineto
            -160 -25 -83 -112 -142 hhcurveto
            -174 -98 147 292 hvcurveto
            endchar
          </CharString>
          <CharString index="227">
            109 218 hvcurveto
            1101 vlineto
            endchar
          </CharString>
          <CharString index="228">
            -1266 hlineto
            endchar
          </CharString>
          <CharString index="229">
            1289 rmoveto
            -101 callsubr
            return
          </CharString>
          <CharString index="230">
            53 callsubr
            -263 hlineto
            return
          </CharString>
          <CharString index="231">
            hlineto
            -282 -324 rlineto
            220 hlineto
            return
          </CharString>
          <CharString index="232">
            5 callsubr
            hvcurveto
            return
          </CharString>
          <CharString index="233">
            62 -63 73 hvcurveto
            return
          </CharString>
          <CharString index="234">
            209 callsubr
            -229 hlineto
            291 85 callsubr
            -673 312 rmoveto
            return
          </CharString>
          <CharString index="235">
            872 hmoveto
            233 1095 -944 -1095 233 903 478 hlineto
            endchar
          </CharString>
          <CharString index="236">
            753 1892 rmoveto
            -165 238 rlineto
            -221 hlineto
            199 -238 rlineto
            return
          </CharString>
          <CharString index="237">
            145 callgsubr
            -241 347 rlineto
            -263 hlineto
            274 -347 rlineto
            endchar
          </CharString>
          <CharString index="238" raw="1">
            fc6615da a11d3c0b  
          </CharString>
          <CharString index="239">
            rlineto
            -226 hlineto
            return
          </CharString>
          <CharString index="240">
            1599 rmoveto
            107 1 81 72 116 hhcurveto
            117 80 -72 -107 2 hvcurveto
            return
          </CharString>
          <CharString index="241">
            152 callsubr
            -132 return
          </CharString>
          <CharString index="242">
            196 vhcurveto
            -182 hlineto
            173 callgsubr
            -75 -100 hhcurveto
            -101 -70 75 111 return
          </CharString>
          <CharString index="243">
            124 callgsubr
            endchar
          </CharString>
          <CharString index="244">
            rmoveto
            166 -695 -166 vlineto
            return
          </CharString>
          <CharString index="245">
            1306 -183 -1306 return
          </CharString>
          <CharString index="246">
            hlineto
            163 196 rlineto
            16 hlineto
            return
          </CharString>
          <CharString index="247">
            -63 -63 -76 -76 63 -63 return
          </CharString>
          <CharString index="248">
            -22 -72 -39 -55 6 8 return
          </CharString>
          <CharString index="249">
            vhcurveto
            16 -187 225 return
          </CharString>
          <CharString index="250">
            -285 212 478 return
          </CharString>
          <CharString index="251">
            -71 -57 -59 -73 return
          </CharString>
          <CharString index="252">
            151 callsubr
            1494 -73 1306 165 callsubr
            return
          </CharString>
          <CharString index="253">
            -177 138 -115 224 224 138 115 177 vhcurveto
            return
          </CharString>
          <CharString index="254">
            40 callsubr
            -233 hlineto
            -155 -216 rlineto
            return
          </CharString>
          <CharString index="255">
            116 callgsubr
            -152 hlineto
            -92 -4 return
          </CharString>
          <CharString index="256">
            -188 179 callsubr
            return
          </CharString>
          <CharString index="257">
            -340 180 callgsubr
            return
          </CharString>
          <CharString index="258">
            798 -840 rmoveto
            return
          </CharString>
          <CharString index="259">
            -22 hvcurveto
            80 166 callgsubr
            68 82 103 vvcurveto
            119 -93 79 return
          </CharString>
          <CharString index="260">
            10 23 38 7 33 hhcurveto
            57 37 -28 -43 -40 -30 -37 -56 -22 hvcurveto
            return
          </CharString>
          <CharString index="261">
            103 vvcurveto
            118 -93 79 -131 -60 -56 -12 -15 -36 vhcurveto
            endchar
          </CharString>
          <CharString index="262">
            208 callsubr
            -1306 vlineto
            endchar
          </CharString>
          <CharString index="263">
            -73 57 -59 71 return
          </CharString>
          <CharString index="264">
            82 46 -150 151 hhcurveto
            148 96 122 187 hvcurveto
            return
          </CharString>
          <CharString index="265">
            -188 725 52 callsubr
          </CharString>
          <CharString index="266">
            -70 -60 -60 -73 -72 60 -60 70 hvcurveto
            return
          </CharString>
          <CharString index="267">
            -1069 hlineto
            -131 -56 -48 -164 return
          </CharString>
          <CharString index="268">
            330 384 -330 hlineto
            return
          </CharString>
          <CharString index="269">
            -340 652 -1230 return
          </CharString>
          <CharString index="270">
            197 callsubr
            40 hhcurveto
            return
          </CharString>
          <CharString index="271">
            1259 rmoveto
            203 return
          </CharString>
          <CharString index="272">
            -184 -1306 return
          </CharString>
          <CharString index="273">
            193 rmoveto
            902 return
          </CharString>
          <CharString index="274">
            -41 -61 -22 hvcurveto
            return
          </CharString>
          <CharString index="275">
            -106 rmoveto
            105 106 -105 hlineto
            210 -106 rmoveto
            106 106 -106 hlineto
            return
          </CharString>
          <CharString index="276">
            375 rmoveto
            -216 hlineto
            234 -324 rlineto
            176 hlineto
            return
          </CharString>
          <CharString index="277">
            187 138 84 126 -84 434 -275 hlineto
            -35 return
          </CharString>
          <CharString index="278">
            -18 rlineto
            9 vlineto
            194 159 223 212 -143 return
          </CharString>
          <CharString index="279">
            187 callgsubr
            endchar
          </CharString>
          <CharString index="280">
            rmoveto
            -1443 return
          </CharString>
          <CharString index="281" raw="1">
            06fb6722 15f4f422 06fb6722 150b
          </CharString>
          <CharString index="282">
            rmoveto
            106 105 -106 hlineto
            -210 -105 rmoveto
            105 105 -105 hlineto
            return
          </CharString>
          <CharString index="283">
            rmoveto
            106 106 -106 hlineto
            -210 -106 rmoveto
            105 106 -105 hlineto
            return
          </CharString>
          <CharString index="284">
            146 hvcurveto
            146 172 -145 hlineto
            -142 -77 return
          </CharString>
          <CharString index="285">
            157 -116 120 -152 return
          </CharString>
          <CharString index="286">
            rmoveto
            237 188 -237 hlineto
            return
          </CharString>
          <CharString index="287">
            rmoveto
            -189 -101 -117 -162 return
          </CharString>
          <CharString index="288">
            184 1117 vlineto
            endchar
          </CharString>
          <CharString index="289">
            -210 -1443 return
          </CharString>
          <CharString index="290">
            -1 hvcurveto
            -184 hlineto
            return
          </CharString>
          <CharString index="291">
            rmoveto
            208 hlineto
            151 357 rlineto
            -236 hlineto
            return
          </CharString>
          <CharString index="292">
            vlineto
            -211 -102 rlineto
            -145 vlineto
            211 102 rlineto
            return
          </CharString>
          <CharString index="293">
            hmoveto
            -105 105 105 vlineto
            316 hmoveto
            -105 106 105 vlineto
            return
          </CharString>
          <CharString index="294">
            390 rmoveto
            909 340 -909 hlineto
            endchar
          </CharString>
          <CharString index="295">
            hlineto
            -128 -644 rlineto
            return
          </CharString>
          <CharString index="296">
            105 vlineto
            -527 hmoveto
            -105 return
          </CharString>
          <CharString index="297">
            200 callsubr
            725 return
          </CharString>
          <CharString index="298">
            -1443 vlineto
            endchar
          </CharString>
          <CharString index="299">
            -106 106 106 vlineto
            return
          </CharString>
          <CharString index="300">
            60 -70 159 callsubr
            return
          </CharString>
          <CharString index="301">
            -91 -72 -70 -90 -90 72 -71 91 hvcurveto
            endchar
          </CharString>
          <CharString index="302">
            152 callgsubr
            -220 hlineto
            return
          </CharString>
          <CharString index="303">
            1443 173 callsubr
            return
          </CharString>
          <CharString index="304">
            rmoveto
            14 29 42 9 return
          </CharString>
          <CharString index="305">
            vhcurveto
            141 vlineto
            return
          </CharString>
          <CharString index="306">
            vhcurveto
            -221 vlineto
            return
          </CharString>
          <CharString index="307">
            -725 -189 return
          </CharString>
          <CharString index="308">
            -106 hlineto
            -211 return
          </CharString>
          <CharString index="309">
            -106 rmoveto
            106 106 201 callsubr
            -106 rmoveto
            return
          </CharString>
          <CharString index="310">
            rmoveto
            -79 -67 -67 -81 -82 67 -67 79 79 return
          </CharString>
          <CharString index="311">
            633 -14 rmoveto
            112 92 95 114 return
          </CharString>
          <CharString index="312">
            222 108 rlineto
            145 vlineto
            -222 return
          </CharString>
          <CharString index="313">
            633 2048 -633 hlineto
            endchar
          </CharString>
          <CharString index="314">
            54 callsubr
            endchar
          </CharString>
          <CharString index="315">
            -188 652 return
          </CharString>
          <CharString index="316">
            1918 rmoveto
            return
          </CharString>
          <CharString index="317">
            rlineto
            114 45 return
          </CharString>
        <CharString name=".notdef">
          endchar
        </CharString>
        <CharString name="A">
          449 571 -105 callgsubr
        </CharString>
        <CharString name="AE">
          384 589 -53 callsubr
        </CharString>
        <CharString name="AEacute">
          1224 29 callgsubr
          -524 -1017 -53 callsubr
        </CharString>
        <CharString name="AEmacron">
          1156 1838 rmoveto
          -695 -166 695 hlineto
          -772 -1083 -53 callsubr
        </CharString>
        <CharString name="Aacute">
          1048 29 callgsubr
          -283 -1035 -105 callgsubr
        </CharString>
        <CharString name="Abreve">
          47 callsubr
          -554 -1352 -105 callgsubr
        </CharString>
        <CharString name="Abreveacute">
          899 2130 rmoveto
          -221 hlineto
          -165 -238 rlineto
          187 hlineto
          131 -10 rmoveto
          63 callgsubr
          -172 hlineto
          38 callsubr
          -554 -1311 -105 callgsubr
        </CharString>
        <CharString name="Abrevedotbelow">
          47 callsubr
          -370 -2092 -46 callsubr
        </CharString>
        <CharString name="Abrevegrave">
          129 callsubr
          265 -10 rmoveto
          63 callgsubr
          -172 hlineto
          38 callsubr
          -554 -1311 -105 callgsubr
        </CharString>
        <CharString name="Abrevehookabove">
          641 1787 rmoveto
          146 callgsubr
          -119 vlineto
          153 callsubr
          283 -13 rmoveto
          171 callgsubr
          -157 hlineto
          146 callsubr
          -546 -1289 -105 callgsubr
        </CharString>
        <CharString name="Abrevetilde">
          847 2126 rmoveto
          69 callgsubr
          123 90 91 144 hvcurveto
          -718 -289 65 callgsubr
          10 -1266 -105 callgsubr
        </CharString>
        <CharString name="Acaron">
          742 1601 rmoveto
          283 324 rlineto
          -221 hlineto
          -163 -196 rlineto
          -16 hlineto
          -163 196 rlineto
          -221 hlineto
          283 -324 rlineto
          -75 -1030 -105 callgsubr
        </CharString>
        <CharString name="Acircumflex">
          76 callsubr
          -13 -1035 -105 callgsubr
        </CharString>
        <CharString name="Acircumflexacute">
          1279 2130 rmoveto
          -229 hlineto
          -196 -267 rlineto
          205 hlineto
          -434 -138 rmoveto
          16 hlineto
          157 -146 174 callgsubr
          -278 250 rlineto
          94 callsubr
          -19 -1008 rmoveto
          172 619 rlineto
          10 hlineto
          170 -619 rlineto
          -307 872 rmoveto
          110 callsubr
          -445 -50 callgsubr
          rlineto
          endchar
        </CharString>
        <CharString name="Acircumflexdotbelow">
          76 callsubr
          171 -1775 -46 callsubr
        </CharString>
        <CharString name="Acircumflexgrave">
          1118 1863 101 callsubr
          -288 -138 rmoveto
          16 hlineto
          157 -146 174 callgsubr
          -278 250 rlineto
          94 callsubr
          -19 -1008 -105 callgsubr
        </CharString>
        <CharString name="Acircumflexhookabove">
          961 1769 rmoveto
          95 38 54 75 94 vvcurveto
          108 -83 72 -128 -50 -52 -8 -12 -28 vhcurveto
          -124 vlineto
          10 22 38 7 34 hhcurveto
          56 37 -29 -44 -40 -29 -38 -57 -22 hvcurveto
          -245 -131 rmoveto
          16 hlineto
          157 -146 174 callgsubr
          -278 250 rlineto
          94 callsubr
          -19 -1008 -105 callgsubr
        </CharString>
        <CharString name="Acircumflextilde">
          856 2143 rmoveto
          -78 -4 -34 -37 -52 -99 -16 128 -163 hhcurveto
          -132 -91 -97 -161 hvcurveto
          146 hlineto
          74 3 32 39 54 99 16 -129 163 hhcurveto
          131 92 99 162 hvcurveto
          -376 -418 rmoveto
          16 hlineto
          157 -146 174 callgsubr
          -278 250 rlineto
          94 callsubr
          -19 -1008 -105 callgsubr
        </CharString>
        <CharString name="Acyrillic">
          449 571 -105 callgsubr
        </CharString>
        <CharString name="Adblgrave">
          957 1606 rmoveto
          -269 312 rlineto
          -228 hlineto
          290 -312 rlineto
          -196 hmoveto
          -269 312 rlineto
          -228 hlineto
          291 -312 rlineto
          101 -1035 -105 callgsubr
        </CharString>
        <CharString name="Adieresis">
          852 1633 -65 callsubr
          35 -1062 -105 callgsubr
        </CharString>
        <CharString name="Adieresismacron">
          177 callgsubr
          -265 -257 rmoveto
          156 callsubr
          5 callsubr
          144 callsubr
          vhcurveto
          -429 hmoveto
          156 callsubr
          5 callsubr
          144 callsubr
          vhcurveto
          157 -1125 -105 callgsubr
        </CharString>
        <CharString name="Adotaccent">
          633 1615 -48 callgsubr
          -184 -1044 -105 callgsubr
        </CharString>
        <CharString name="Adotbelow">
          633 -169 -46 callsubr
        </CharString>
        <CharString name="Adotmacron">
          177 callgsubr
          -486 -247 rmoveto
          -76 60 -61 74 74 60 61 76 77 -60 61 -74 -74 -60 -61 -77 vhcurveto
          -51 -1135 -105 callgsubr
        </CharString>
        <CharString name="Agrave">
          763 1606 rmoveto
          -286 312 rlineto
          11 callgsubr
          -84 -1035 -105 callgsubr
        </CharString>
        <CharString name="Ahookabove">
          636 1565 rmoveto
          111 43 68 84 99 vvcurveto
          118 -93 75 -134 -57 -56 -12 -13 -32 vhcurveto
          -133 vlineto
          12 25 42 9 43 hhcurveto
          66 41 -31 -46 75 callsubr
          -108 -1093 -105 callgsubr
        </CharString>
        <CharString name="Ainvertedbreve">
          1003 1599 rmoveto
          191 -147 133 -223 -223 -147 -133 -191 vhcurveto
          172 hlineto
          107 1 80 72 117 hhcurveto
          117 80 -72 -107 1 hvcurveto
          -382 -1028 -105 callgsubr
        </CharString>
        <CharString name="Alphagreek">
          449 571 -105 callgsubr
        </CharString>
        <CharString name="Alphatonosgreek">
          376 81 callsubr
          -225 hlineto
          -79 -361 rlineto
          167 hlineto
          293 -511 rmoveto
          138 607 rlineto
          10 hlineto
          136 -607 rlineto
          128 -571 rmoveto
          255 hlineto
          -379 197 callgsubr
          -378 -1443 rlineto
          238 hlineto
          86 379 rlineto
          371 hlineto
          endchar
        </CharString>
        <CharString name="Amacron">
          981 1838 rmoveto
          -696 -166 696 hlineto
          -532 -1101 -105 callgsubr
        </CharString>
        <CharString name="Aogonek">
          449 571 rmoveto
          172 619 rlineto
          10 hlineto
          170 -619 rlineto
          416 -571 rmoveto
          -445 1443 rlineto
          -100 callsubr
          102 -371 rlineto
          -104 -67 -44 -68 -96 vvcurveto
          -134 109 -91 160 51 53 8 11 28 vhcurveto
          142 vlineto
          -4 -14 -35 -4 -29 hhcurveto
          -81 -52 42 65 85 67 58 143 42 hvcurveto
          endchar
        </CharString>
        <CharString name="Aring">
          633 1845 rmoveto
          56 42 -41 -56 -55 -41 -41 -57 -56 -42 41 55 56 42 41 56 hvcurveto
          -292 vmoveto
          100 callgsubr
          -184 -982 -105 callgsubr
        </CharString>
        <CharString name="Aringacute">
          864 2184 rmoveto
          -219 hlineto
          -107 -182 rlineto
          195 hlineto
          -100 -163 rmoveto
          56 42 -41 -56 -56 -41 -41 -57 -56 -42 41 56 56 42 41 56 hvcurveto
          -292 vmoveto
          113 85 84 112 110 -85 84 -113 -113 -85 -84 -110 -112 86 -84 112 hvcurveto
          -184 -976 -105 callgsubr
        </CharString>
        <CharString name="Aringbelow">
          633 -457 53 callgsubr
          61 47 -48 -62 -62 -47 -48 -61 hvcurveto
          347 vmoveto
          -128 -105 -106 -131 -131 105 -106 128 128 105 106 131 131 -105 106 -128 hvcurveto
          -184 681 rmoveto
          172 619 rlineto
          10 hlineto
          170 -619 rlineto
          -29 872 rmoveto
          -278 hlineto
          110 callsubr
          endchar
        </CharString>
        <CharString name="Atilde">
          863 1890 rmoveto
          -92 -4 -35 -42 -54 -90 -57 callgsubr
          134 94 116 callgsubr
          -566 -1319 -105 callgsubr
        </CharString>
        <CharString name="B">
          -96 callgsubr
          endchar
        </CharString>
        <CharString name="Bdotaccent">
          -96 callgsubr
          -26 1421 26 callgsubr
        </CharString>
        <CharString name="Bdotbelow">
          -96 callgsubr
          -26 -660 62 callsubr
        </CharString>
        <CharString name="Becyrillic">
          401 690 rmoveto
          243 hlineto
          179 106 -90 -153 -154 -105 -88 -180 hvcurveto
          -243 hlineto
          680 vmoveto
          347 648 211 -890 -1443 544 vlineto
          282 191 179 267 262 -195 177 -286 hvcurveto
          endchar
        </CharString>
        <CharString name="Betagreek">
          -96 callgsubr
          endchar
        </CharString>
        <CharString name="Blinebelow">
          -96 callgsubr
          322 -601 -70 callsubr
          endchar
        </CharString>
        <CharString name="C">
          665 189 rmoveto
          18 callgsubr
          279 vlineto
          -91 callsubr
          endchar
        </CharString>
        <CharString name="Cacute">
          665 189 rmoveto
          18 callgsubr
          279 vlineto
          -91 callsubr
          -145 1417 -73 callgsubr
          endchar
        </CharString>
        <CharString name="Ccaron">
          1043 -71 callsubr
          -399 -740 rmoveto
          -11 callgsubr
        </CharString>
        <CharString name="Ccedilla">
          361 861 -72 callgsubr
        </CharString>
        <CharString name="Ccedillaacute">
          1066 29 callgsubr
          -389 -745 -72 callgsubr
        </CharString>
        <CharString name="Ccircumflex">
          665 189 rmoveto
          18 callgsubr
          279 vlineto
          -91 callsubr
          95 1741 -50 callsubr
          endchar
        </CharString>
        <CharString name="Cdotaccent">
          665 189 rmoveto
          18 callgsubr
          279 vlineto
          -91 callsubr
          -14 1426 4 callsubr
        </CharString>
        <CharString name="Checyrillic">
          1145 81 callsubr
          -241 -615 hlineto
          -28 callgsubr
          -603 241 hlineto
          endchar
        </CharString>
        <CharString name="Chigreek">
          -62 callgsubr
          endchar
        </CharString>
        <CharString name="D">
          -75 callgsubr
          endchar
        </CharString>
        <CharString name="Dcaron">
          975 -71 callsubr
          -314 -369 rmoveto
          168 hlineto
          270 128 -164 -343 -353 -126 -161 -272 hvcurveto
          -168 hlineto
          -242 1232 173 callsubr
          440 vlineto
          408 207 246 483 471 -209 243 -406 hvcurveto
          endchar
        </CharString>
        <CharString name="Dcircumflexbelow">
          -75 callgsubr
          79 -373 -89 callgsubr
          endchar
        </CharString>
        <CharString name="Dcommaaccent">
          -75 callgsubr
          203 -715 rmoveto
          150 -35 callgsubr
        </CharString>
        <CharString name="Dcroat">
          395 200 rmoveto
          440 272 189 -272 414 157 vlineto
          273 128 -165 -353 -365 -122 -160 -274 hvcurveto
          -386 1243 rmoveto
          -614 -144 -189 144 -640 406 vlineto
          407 208 246 483 471 -209 243 -406 hvcurveto
          endchar
        </CharString>
        <CharString name="Ddotaccent">
          -75 callgsubr
          205 1404 26 callgsubr
        </CharString>
        <CharString name="Ddotbelow">
          -75 callgsubr
          205 -677 62 callsubr
        </CharString>
        <CharString name="Decyrillic">
          1025 hmoveto
          -285 219 496 -145 1232 -832 vlineto
          -45 -850 -12 -222 -34 -102 -80 -58 rlinecurve
          -77 -496 220 285 hlineto
          242 1233 rmoveto
          377 -1022 -498 20 hlineto
          49 67 26 102 10 174 rrcurveto
          endchar
        </CharString>
        <CharString name="Deltagreek">
          71 hmoveto
          1124 147 hlineto
          -423 1296 rlineto
          -278 hlineto
          -423 -1296 rlineto
          254 64 rmoveto
          15 vlineto
          296 969 rlineto
          10 hlineto
          295 -969 rlineto
          -15 vlineto
          endchar
        </CharString>
        <CharString name="Djecyrillic">
          738 -33 rmoveto
          -9 23 58 -7 48 hhcurveto
          244 142 172 307 287 -147 181 -256 -154 -87 -56 -31 -34 hvcurveto
          -13 422 357 210 -919 -210 339 -1233 223 593 hlineto
          38 32 81 55 120 hhcurveto
          144 81 -101 -166 -169 -70 -92 -120 -33 -36 5 7 -23 hvcurveto
          endchar
        </CharString>
        <CharString name="Dlinebelow">
          -75 callgsubr
          553 -618 -70 callsubr
          endchar
        </CharString>
        <CharString name="Dzecyrillic">
          112 396 -104 callgsubr
          endchar
        </CharString>
        <CharString name="Dzhecyrillic">
          519 -285 rmoveto
          227 285 426 -50 callgsubr
          -242 -1232 -594 1232 -242 -1443 425 hlineto
          endchar
        </CharString>
        <CharString name="E">
          1098 211 -54 callgsubr
        </CharString>
        <CharString name="Eacute">
          1098 211 -102 callsubr
          -584 1606 71 callgsubr
        </CharString>
        <CharString name="Ebreve">
          1098 211 -102 callsubr
          -814 1923 rmoveto
          44 callgsubr
          224 146 133 191 vhcurveto
          -171 hlineto
          64 callgsubr
          endchar
        </CharString>
        <CharString name="Ecaron">
          1046 1925 rmoveto
          9 callsubr
          218 hlineto
          335 -1390 -54 callgsubr
        </CharString>
        <CharString name="Ecedilla">
          1098 1232 rmoveto
          211 -887 -1443 375 vlineto
          -56 -133 rlineto
          -60 callsubr
          49 118 rlineto
          356 211 -645 422 608 197 -608 402 hlineto
          endchar
        </CharString>
        <CharString name="Ecedillabreve">
          853 1923 rmoveto
          64 callgsubr
          -172 hlineto
          44 callgsubr
          224 146 133 191 vhcurveto
          74 -691 rmoveto
          211 -887 -1443 375 vlineto
          -56 -133 rlineto
          -60 callsubr
          49 118 rlineto
          356 211 -645 422 608 197 -608 402 hlineto
          endchar
        </CharString>
        <CharString name="Ecircumflex">
          1098 211 -102 callsubr
          -335 1930 86 callsubr
        </CharString>
        <CharString name="Ecircumflexacute">
          1098 211 -102 callsubr
          -223 1863 rmoveto
          205 hlineto
          221 267 rlineto
          -230 hlineto
          -299 -301 -4 callsubr
          endchar
        </CharString>
        <CharString name="Ecircumflexbelow">
          1098 211 -102 callsubr
          -570 -162 -89 callgsubr
          endchar
        </CharString>
        <CharString name="Ecircumflexdotbelow">
          1098 211 -102 callsubr
          -335 1930 -4 callgsubr
          -392 -2062 rmoveto
          -20 callsubr
        </CharString>
        <CharString name="Ecircumflexgrave">
          1098 211 -102 callsubr
          41 1863 rmoveto
          -196 267 rlineto
          -229 hlineto
          220 -267 rlineto
          -162 -34 -4 callsubr
          endchar
        </CharString>
        <CharString name="Ecircumflexhookabove">
          1098 211 -102 callsubr
          -307 2012 rmoveto
          10 21 38 7 34 hhcurveto
          56 37 -29 -44 -40 -29 -38 -56 -22 hvcurveto
          90 -87 rlineto
          95 38 54 75 94 vvcurveto
          108 -83 72 -127 -51 -52 -8 -12 -27 vhcurveto
          -19 -307 -4 callsubr
          endchar
        </CharString>
        <CharString name="Ecircumflextilde">
          1098 211 -102 callsubr
          -326 1829 -4 callsubr
          -250 303 rmoveto
          131 93 99 162 hvcurveto
          -146 hlineto
          -78 -3 -35 -37 -51 -100 -15 128 -164 hhcurveto
          -132 -91 -97 -161 hvcurveto
          146 hlineto
          74 3 32 39 54 100 15 -129 163 hhcurveto
          endchar
        </CharString>
        <CharString name="Ecyrillic">
          361 634 -14 callgsubr
        </CharString>
        <CharString name="Edblgrave">
          710 127 callsubr
          -228 hlineto
          291 85 callsubr
          522 -1395 -54 callgsubr
        </CharString>
        <CharString name="Edieresis">
          1098 211 -102 callsubr
          -663 1633 -5 callsubr
        </CharString>
        <CharString name="Edotaccent">
          1098 211 -102 callsubr
          -439 1615 4 callsubr
        </CharString>
        <CharString name="Edotbelow">
          1098 211 -102 callsubr
          -444 -456 rmoveto
          -20 callsubr
        </CharString>
        <CharString name="Efcyrillic">
          520 -26 rmoveto
          226 165 hlineto
          328 10 185 208 367 vvcurveto
          365 -186 209 -327 11 vhcurveto
          160 -226 -160 vlineto
          -327 -11 -186 -209 -365 vvcurveto
          -367 185 -208 328 -10 vhcurveto
          -289 585 rmoveto
          246 109 145 183 9 vhcurveto
          -800 vlineto
          -183 7 -109 145 248 vvcurveto
          512 400 rmoveto
          183 -9 109 -145 -246 vvcurveto
          -248 -109 -145 -183 -7 vhcurveto
          endchar
        </CharString>
        <CharString name="Egrave">
          498 -22 callsubr
          314 -1395 -54 callgsubr
        </CharString>
        <CharString name="Ehookabove">
          1098 211 -102 callsubr
          -634 1826 rmoveto
          12 25 43 9 42 hhcurveto
          66 41 -31 -46 75 callsubr
          80 111 callsubr
        </CharString>
        <CharString name="Einvertedbreve">
          456 133 callsubr
          171 hlineto
          191 -146 133 -224 -223 -147 -133 -191 vhcurveto
          814 -1388 -54 callgsubr
        </CharString>
        <CharString name="Elcyrillic">
          1143 81 callsubr
          -867 hlineto
          36 callgsubr
          237 hlineto
          endchar
        </CharString>
        <CharString name="Emacron">
          1098 211 -102 callsubr
          -96 94 callgsubr
          endchar
        </CharString>
        <CharString name="Emacronacute">
          738 1881 rmoveto
          205 249 rlineto
          -238 hlineto
          -179 -249 rlineto
          480 -270 rmoveto
          148 -704 -148 vlineto
          796 -1400 -54 callgsubr
        </CharString>
        <CharString name="Emacrongrave">
          1098 211 -102 callsubr
          -92 1612 rmoveto
          148 -704 -148 vlineto
          480 269 rmoveto
          -180 249 rlineto
          -237 hlineto
          204 -249 rlineto
          endchar
        </CharString>
        <CharString name="Emcyrillic">
          -78 callsubr
          endchar
        </CharString>
        <CharString name="Encyrillic">
          -59 callsubr
          endchar
        </CharString>
        <CharString name="Eogonek">
          864 hmoveto
          -16 vlineto
          -92 -58 -47 -74 -88 vvcurveto
          -125 103 -87 148 46 47 8 12 34 198 callsubr
          -4 -17 -29 -4 -22 hhcurveto
          -72 -51 45 62 77 56 67 114 44 hvcurveto
          16 6 rlineto
          205 -645 422 608 197 -608 402 151 callgsubr
          endchar
        </CharString>
        <CharString name="Epsilongreek">
          1098 211 -54 callgsubr
        </CharString>
        <CharString name="Epsilontonosgreek">
          1146 211 rmoveto
          -454 422 417 197 -417 402 454 211 -687 -1443 687 hlineto
          -1109 1082 8 callgsubr
        </CharString>
        <CharString name="Ercyrillic">
          -65 callgsubr
          endchar
        </CharString>
        <CharString name="Ereversedcyrillic">
          289 959 -93 callsubr
        </CharString>
        <CharString name="Escyrillic">
          665 189 rmoveto
          18 callgsubr
          279 vlineto
          -91 callsubr
          endchar
        </CharString>
        <CharString name="Etagreek">
          -59 callsubr
          endchar
        </CharString>
        <CharString name="Etatonosgreek">
          1189 hmoveto
          -50 callgsubr
          -212 -606 -336 606 -212 -1443 212 632 336 -632 vlineto
          -953 1082 8 callgsubr
        </CharString>
        <CharString name="Eth">
          378 211 rmoveto
          421 246 199 -246 401 168 vlineto
          270 128 -164 -343 -353 -126 -161 -272 hvcurveto
          -410 1232 rmoveto
          -612 -127 -199 127 -632 440 vlineto
          408 207 246 483 471 -209 243 -406 hvcurveto
          endchar
        </CharString>
        <CharString name="Etilde">
          1098 211 -102 callsubr
          -290 1604 rmoveto
          134 94 148 callsubr
          -35 -42 -54 -90 -37 146 -163 hhcurveto
          -135 -94 -107 -181 hvcurveto
          153 hlineto
          93 3 34 43 56 99 33 -146 158 hhcurveto
          endchar
        </CharString>
        <CharString name="Etildebelow">
          1098 211 -102 callsubr
          -580 -310 rmoveto
          82 46 79 callsubr
          -28 -48 -55 98 callsubr
        </CharString>
        <CharString name="Euro">
          1205 -16 rmoveto
          213 vlineto
          -5 -37 -52 -3 -55 hhcurveto
          -265 -159 100 210 -73 hvcurveto
          523 139 -558 hlineto
          -3 25 -1 26 34 vvcurveto
          24 1 25 3 27 vhcurveto
          558 138 -526 hlineto
          215 72 161 102 270 hhcurveto
          56 44 -3 -6 39 hvcurveto
          210 vlineto
          9 -38 -61 5 -57 hhcurveto
          -418 -249 -178 -354 -76 hvcurveto
          -202 -138 183 hlineto
          -2 -22 -1 -25 -30 vvcurveto
          -33 1 -27 3 -24 vhcurveto
          -184 -139 203 hlineto
          -349 79 248 -175 415 hhcurveto
          56 55 3 6 47 hvcurveto
          endchar
        </CharString>
        <CharString name="F">
          43 callgsubr
          endchar
        </CharString>
        <CharString name="Fdotaccent">
          43 callgsubr
          411 1615 26 callgsubr
        </CharString>
        <CharString name="G">
          930 460 -100 callgsubr
          endchar
        </CharString>
        <CharString name="Gacute">
          930 460 -100 callgsubr
          -411 1040 -73 callgsubr
          endchar
        </CharString>
        <CharString name="Gammagreek">
          240 hmoveto
          241 hlineto
          1 1232 rlineto
          645 211 -887 hlineto
          endchar
        </CharString>
        <CharString name="Gbreve">
          930 460 -100 callgsubr
          -656 1357 rmoveto
          44 callgsubr
          224 147 133 191 vhcurveto
          -172 hlineto
          64 callgsubr
          endchar
        </CharString>
        <CharString name="Gcaron">
          1036 28 callsubr
          218 hlineto
          177 -1141 -100 callgsubr
          endchar
        </CharString>
        <CharString name="Gcircumflex">
          930 460 -100 callgsubr
          -177 1364 rmoveto
          -218 3 callgsubr
        </CharString>
        <CharString name="Gcommaaccent">
          930 460 -100 callgsubr
          -289 -1070 rmoveto
          151 -35 callgsubr
        </CharString>
        <CharString name="Gdotaccent">
          930 460 -100 callgsubr
          -286 1049 rmoveto
          -20 callsubr
        </CharString>
        <CharString name="Gecyrillic">
          1227 1443 79 callgsubr
        </CharString>
        <CharString name="Geupturncyrillic">
          1018 1722 rmoveto
          -279 -953 -211 232 -1021 -232 -211 723 211 -248 1021 478 -239 218 729 vlineto
          endchar
        </CharString>
        <CharString name="Gjecyrillic">
          1078 114 callsubr
          -287 -312 rlineto
          231 hlineto
          465 -163 79 callgsubr
        </CharString>
        <CharString name="Gmacron">
          930 460 -100 callgsubr
          62 1106 49 callsubr
        </CharString>
        <CharString name="H">
          -59 callsubr
          endchar
        </CharString>
        <CharString name="Hardsigncyrillic">
          542 733 rmoveto
          198 hlineto
          159 94 -98 -167 -167 -94 -96 -159 hvcurveto
          -198 hlineto
          731 vmoveto
          507 -525 -210 284 -1233 495 vlineto
          260 175 188 280 280 -181 188 -267 hvcurveto
          endchar
        </CharString>
        <CharString name="Hbar">
          386 835 rmoveto
          240 491 -240 vlineto
          -485 -206 rmoveto
          479 -629 242 1071 112 172 -112 200 -242 -200 -479 200 -242 -200 -109 -172 109 -1071 242 hlineto
          endchar
        </CharString>
        <CharString name="Hbrevebelow">
          -59 callsubr
          -263 -310 -32 callsubr
        </CharString>
        <CharString name="Hcaron">
          1025 -71 callsubr
          392 -1601 rmoveto
          -50 callgsubr
          -238 -603 -526 603 -238 -1443 238 629 526 -629 vlineto
          endchar
        </CharString>
        <CharString name="Hcedilla">
          896 81 callsubr
          -603 -526 603 -238 -1443 82 vlineto
          -56 -133 rlineto
          -60 callsubr
          49 118 rlineto
          629 526 -629 238 208 callgsubr
        </CharString>
        <CharString name="Hcircumflex">
          -59 callsubr
          -154 1930 -50 callsubr
          endchar
        </CharString>
        <CharString name="Hdieresis">
          -59 callsubr
          -482 1633 -90 callsubr
        </CharString>
        <CharString name="Hdotaccent">
          -59 callsubr
          -263 1615 -48 callgsubr
          endchar
        </CharString>
        <CharString name="Hdotbelow">
          -59 callsubr
          -263 59 callsubr
          endchar
        </CharString>
        <CharString name="I">
          1050 hmoveto
          6 callgsubr
        </CharString>
        <CharString name="IAcyrillic">
          909 540 -72 callsubr
        </CharString>
        <CharString name="IJ">
          387 hmoveto
          12 callsubr
        </CharString>
        <CharString name="IJacute">
          194 1606 rmoveto
          231 hlineto
          315 312 rlineto
          -259 hlineto
          330 -312 -73 callgsubr
          -710 -1918 rmoveto
          12 callsubr
        </CharString>
        <CharString name="IUcyrillic">
          795 1266 -84 callsubr
        </CharString>
        <CharString name="Iacute">
          1050 hmoveto
          -91 callgsubr
          286 29 callsubr
          endchar
        </CharString>
        <CharString name="Ibreve">
          1050 hmoveto
          -91 callgsubr
          47 1923 1 callsubr
        </CharString>
        <CharString name="Icaron">
          1025 -71 callsubr
          308 -1601 2 callsubr
        </CharString>
        <CharString name="Icircumflex">
          1050 hmoveto
          -91 callgsubr
          526 1930 -50 callsubr
          endchar
        </CharString>
        <CharString name="Icyrillic">
          1050 hmoveto
          6 callgsubr
        </CharString>
        <CharString name="Idblgrave">
          688 9 callgsubr
          291 -312 rlineto
          206 hlineto
          496 -1606 2 callsubr
        </CharString>
        <CharString name="Idieresis">
          1050 hmoveto
          -91 callgsubr
          198 1633 -90 callsubr
        </CharString>
        <CharString name="Idieresisacute">
          1050 hmoveto
          -91 callgsubr
          288 1896 rmoveto
          206 hlineto
          216 234 rlineto
          -240 hlineto
          -267 -566 -25 callsubr
          endchar
        </CharString>
        <CharString name="Idotaccent">
          1050 hmoveto
          -91 callgsubr
          417 1615 -48 callgsubr
          endchar
        </CharString>
        <CharString name="Idotbelow">
          1050 hmoveto
          -91 callgsubr
          416 -466 -52 callgsubr
          endchar
        </CharString>
        <CharString name="Iecyrillic">
          1098 211 -54 callgsubr
        </CharString>
        <CharString name="Igrave">
          477 -22 callsubr
          287 -1606 2 callsubr
        </CharString>
        <CharString name="Ihookabove">
          1050 hmoveto
          -91 callgsubr
          227 41 callsubr
        </CharString>
        <CharString name="Iicyrillic">
          135 1443 -51 callgsubr
        </CharString>
        <CharString name="Iinvertedbreve">
          -7 callgsubr
          787 -1599 2 callsubr
        </CharString>
        <CharString name="Iishortcyrillic">
          279 1936 99 callsubr
          -75 -100 hhcurveto
          -100 -70 75 111 -2 hvcurveto
          -326 -493 -51 callgsubr
        </CharString>
        <CharString name="Imacron">
          1050 hmoveto
          -91 callgsubr
          765 94 callgsubr
          endchar
        </CharString>
        <CharString name="Iocyrillic">
          1098 211 -102 callsubr
          -663 1633 -5 callsubr
        </CharString>
        <CharString name="Iogonek">
          1050 1235 rmoveto
          208 -834 -208 296 -1027 -296 -208 646 vlineto
          -103 -58 -57 -91 -104 vvcurveto
          -113 92 -82 128 42 48 8 13 37 vhcurveto
          147 vlineto
          -6 -16 -23 -2 -26 hhcurveto
          -64 -39 35 57 72 55 65 111 58 hvcurveto
          3 1 rlineto
          208 -296 1027 vlineto
          endchar
        </CharString>
        <CharString name="Iotadieresisgreek">
          1050 hmoveto
          -91 callgsubr
          198 1633 -90 callsubr
        </CharString>
        <CharString name="Iotagreek">
          1050 hmoveto
          6 callgsubr
        </CharString>
        <CharString name="Iotatonosgreek">
          1184 hmoveto
          208 -252 1027 252 208 -716 -208 250 -1027 -250 -208 vlineto
          -385 1082 8 callgsubr
        </CharString>
        <CharString name="Iotatonosgreek.1">
          915 hmoveto
          -50 callgsubr
          -241 -1443 vlineto
          -534 1082 8 callgsubr
        </CharString>
        <CharString name="Itilde">
          1050 hmoveto
          -91 callgsubr
          571 27 callsubr
        </CharString>
        <CharString name="Itildebelow">
          1050 hmoveto
          -91 callgsubr
          281 -320 rmoveto
          82 45 24 callgsubr
          -148 -96 -121 -190 hvcurveto
          167 hlineto
          98 28 49 56 vhcurveto
          endchar
        </CharString>
        <CharString name="J">
          -21 callsubr
          endchar
        </CharString>
        <CharString name="Jcircumflex">
          -21 callsubr
          190 1959 86 callsubr
        </CharString>
        <CharString name="Jecyrillic">
          -21 callsubr
          endchar
        </CharString>
        <CharString name="K">
          412 hmoveto
          -74 callgsubr
          endchar
        </CharString>
        <CharString name="Kacute">
          412 hmoveto
          -74 callgsubr
          360 29 callsubr
          endchar
        </CharString>
        <CharString name="Kacyrillic">
          375 81 callsubr
          -239 -1443 239 622 45 hlineto
          530 -622 rlineto
          292 hlineto
          -622 739 580 704 rlineto
          -269 hlineto
          -512 -627 rlineto
          -44 hlineto
          endchar
        </CharString>
        <CharString name="Kappagreek">
          412 hmoveto
          -74 callgsubr
          endchar
        </CharString>
        <CharString name="Kcaron">
          1063 82 callgsubr
          -369 -1601 rmoveto
          -74 callgsubr
          endchar
        </CharString>
        <CharString name="Kcommaaccent">
          412 hmoveto
          -74 callgsubr
          478 -504 rmoveto
          150 -35 callgsubr
        </CharString>
        <CharString name="Kdotbelow">
          412 hmoveto
          -74 callgsubr
          503 59 callsubr
          endchar
        </CharString>
        <CharString name="Kjecyrillic">
          513 29 callsubr
          -424 -475 rmoveto
          -239 -1443 239 622 45 hlineto
          530 -622 rlineto
          292 hlineto
          -622 739 580 704 rlineto
          -269 hlineto
          -512 -627 rlineto
          -44 hlineto
          endchar
        </CharString>
        <CharString name="Klinebelow">
          412 hmoveto
          -74 callgsubr
          851 -407 -70 callsubr
          endchar
        </CharString>
        <CharString name="L">
          -32 callgsubr
          endchar
        </CharString>
        <CharString name="Lacute">
          -32 callgsubr
          -902 29 callsubr
          endchar
        </CharString>
        <CharString name="Lambdagreek">
          60 hmoveto
          242 hlineto
          319 1180 rlineto
          10 hlineto
          316 -1180 rlineto
          259 hlineto
          -434 197 callgsubr
          endchar
        </CharString>
        <CharString name="Lcaron">
          780 81 callsubr
          -492 159 vlineto
          42 492 rlineto
          154 -1228 rmoveto
          -652 1228 -239 -1443 891 hlineto
          endchar
        </CharString>
        <CharString name="Lcircumflexbelow">
          -32 callgsubr
          -575 -162 rmoveto
          -270 -351 rlineto
          234 22 callsubr
          16 106 callsubr
          234 hlineto
          -271 351 rlineto
          endchar
        </CharString>
        <CharString name="Lcommaaccent">
          -32 callgsubr
          -451 -504 rmoveto
          151 -35 callgsubr
        </CharString>
        <CharString name="Ldot">
          -32 callgsubr
          -166 835 27 callgsubr
        </CharString>
        <CharString name="Ldotbelow">
          -32 callgsubr
          -448 59 callgsubr
          endchar
        </CharString>
        <CharString name="Ldotbelowmacron">
          -32 callgsubr
          -448 59 callgsubr
          24 2138 49 callsubr
        </CharString>
        <CharString name="Ljecyrillic">
          789 734 rmoveto
          81 hlineto
          120 71 -97 -168 -168 -71 -97 -120 hvcurveto
          -81 hlineto
          -392 1043 rmoveto
          193 -1247 315 hlineto
          219 142 174 294 294 -142 174 -219 hvcurveto
          -105 507 -599 hlineto
          -30 -898 rlineto
          -257 -9 -30 -84 -83 hhcurveto
          -17 -20 4 3 -12 hvcurveto
          -211 vlineto
          -6 18 30 -6 32 hhcurveto
          199 79 152 398 14 hvcurveto
          endchar
        </CharString>
        <CharString name="Llinebelow">
          -32 callgsubr
          -100 -407 -70 callsubr
          endchar
        </CharString>
        <CharString name="Lslash">
          483 215 rmoveto
          450 vlineto
          502 277 rlineto
          205 vlineto
          -502 -280 rlineto
          576 -239 -709 vlineto
          -158 -88 rlineto
          -200 vlineto
          158 87 rlineto
          -533 891 215 vlineto
          endchar
        </CharString>
        <CharString name="M">
          -78 callsubr
          endchar
        </CharString>
        <CharString name="Macute">
          -78 callsubr
          204 29 callsubr
          endchar
        </CharString>
        <CharString name="Mdotaccent">
          -78 callsubr
          335 1615 27 callgsubr
        </CharString>
        <CharString name="Mdotbelow">
          -78 callsubr
          335 59 callsubr
          endchar
        </CharString>
        <CharString name="Mugreek">
          -78 callsubr
          endchar
        </CharString>
        <CharString name="N">
          349 hmoveto
          72 callsubr
        </CharString>
        <CharString name="Nacute">
          349 hmoveto
          -77 callgsubr
          363 29 callsubr
          endchar
        </CharString>
        <CharString name="Ncaron">
          1023 -71 callsubr
          -391 -1601 70 callsubr
        </CharString>
        <CharString name="Ncircumflexbelow">
          349 hmoveto
          -77 callgsubr
          368 -162 rmoveto
          -270 -351 rlineto
          234 22 callsubr
          16 106 callsubr
          233 126 callgsubr
          endchar
        </CharString>
        <CharString name="Ncommaaccent">
          349 hmoveto
          -77 callgsubr
          465 -504 rmoveto
          151 -35 callgsubr
        </CharString>
        <CharString name="Ndotaccent">
          349 hmoveto
          -77 callgsubr
          494 1615 4 callsubr
        </CharString>
        <CharString name="Ndotbelow">
          349 hmoveto
          -77 callgsubr
          495 59 callgsubr
          endchar
        </CharString>
        <CharString name="Ngrave">
          475 -22 callsubr
          -412 -1606 70 callsubr
        </CharString>
        <CharString name="Njecyrillic">
          770 649 rmoveto
          79 hlineto
          119 67 -82 -146 -150 -68 -86 -118 hvcurveto
          -79 hlineto
          -496 -185 rmoveto
          644 296 -644 309 vlineto
          219 137 163 263 257 -138 161 -216 hvcurveto
          -105 599 -206 -599 -296 599 -201 -1443 hlineto
          endchar
        </CharString>
        <CharString name="Nlinebelow">
          349 hmoveto
          -77 callgsubr
          843 -407 -70 callsubr
          endchar
        </CharString>
        <CharString name="Ntilde">
          349 hmoveto
          -77 callgsubr
          648 1604 rmoveto
          133 95 148 callsubr
          -36 -42 -54 -89 -57 callgsubr
          endchar
        </CharString>
        <CharString name="Nugreek">
          349 hmoveto
          72 callsubr
        </CharString>
        <CharString name="NumberSignCyrillic">
          247 hmoveto
          1007 19 vlineto
          281 -1007 rlineto
          195 -50 callgsubr
          -170 -1003 -19 hlineto
          -280 1003 rlineto
          -196 -1443 hlineto
          961 1112 rmoveto
          95 76 77 95 95 -76 77 -95 -95 -76 -77 -95 -95 76 -77 95 hvcurveto
          167 -269 rmoveto
          124 -336 -124 vlineto
          endchar
        </CharString>
        <CharString name="O">
          -107 callsubr
          endchar
        </CharString>
        <CharString name="OE">
          259 810 rmoveto
          295 58 121 142 145 61 -128 -303 vhcurveto
          -146 vlineto
          -304 -61 -128 -145 -142 -58 121 295 vhcurveto
          416 -428 rmoveto
          15 -205 570 220 -378 406 343 211 -343 385 378 221 -570 -210 -15 hlineto
          167 -41 -88 77 -157 hhcurveto
          -245 -113 -203 -442 hvcurveto
          -221 vlineto
          -441 113 -204 245 159 88 76 163 39 vhcurveto
          endchar
        </CharString>
        <CharString name="Oacute">
          -107 callsubr
          -131 1419 -73 callgsubr
          endchar
        </CharString>
        <CharString name="Obreve">
          -107 callsubr
          -370 1736 1 callsubr
        </CharString>
        <CharString name="Ocaron">
          1025 -71 callsubr
          -409 -769 -99 callgsubr
        </CharString>
        <CharString name="Ocircumflex">
          -107 callsubr
          109 1743 -50 callsubr
          endchar
        </CharString>
        <CharString name="Ocircumflexacute">
          -107 callsubr
          221 1676 rmoveto
          205 hlineto
          220 267 rlineto
          -229 hlineto
          -300 -301 -56 callgsubr
          endchar
        </CharString>
        <CharString name="Ocircumflexdotbelow">
          -107 callsubr
          109 1743 -50 callsubr
          -392 -2072 rmoveto
          7 callsubr
        </CharString>
        <CharString name="Ocircumflexgrave">
          -107 callsubr
          485 1676 101 callsubr
          -163 -34 -56 callgsubr
          endchar
        </CharString>
        <CharString name="Ocircumflexhookabove">
          -107 callsubr
          136 1825 1 callgsubr
        </CharString>
        <CharString name="Ocircumflextilde">
          -107 callsubr
          117 1642 -8 callgsubr
        </CharString>
        <CharString name="Ocyrillic">
          -107 callsubr
          endchar
        </CharString>
        <CharString name="Odblgrave">
          688 9 callgsubr
          291 -312 rlineto
          206 hlineto
          -221 -774 -99 callgsubr
        </CharString>
        <CharString name="Odieresis">
          -107 callsubr
          -219 1446 -90 callsubr
        </CharString>
        <CharString name="Odieresismacron">
          848 1828 rmoveto
          -70 -58 -59 -73 -73 58 -59 70 71 58 59 73 73 -58 58 callgsubr
          -86 -996 -99 callgsubr
        </CharString>
        <CharString name="Odotaccent">
          -107 callsubr
          1428 vmoveto
          -44 callgsubr
          endchar
        </CharString>
        <CharString name="Odotaccentmacron">
          65 callsubr
          51 -1269 -99 callgsubr
        </CharString>
        <CharString name="Odotbelow">
          -107 callsubr
          -653 5 callgsubr
        </CharString>
        <CharString name="Ograve">
          477 -22 callsubr
          -430 -774 -99 callgsubr
        </CharString>
        <CharString name="Ohookabove">
          -107 callsubr
          -190 1639 -58 callgsubr
          endchar
        </CharString>
        <CharString name="Ohorn">
          633 -29 -83 callsubr
        </CharString>
        <CharString name="Ohornacute">
          438 29 callsubr
          -91 -1947 -83 callsubr
        </CharString>
        <CharString name="Ohorndotbelow">
          633 -29 -82 callgsubr
          -653 5 callgsubr
        </CharString>
        <CharString name="Ohorngrave">
          333 832 rmoveto
          276 107 148 193 193 107 -148 -276 199 callsubr
          -276 -107 -148 -193 -193 -107 148 276 vhcurveto
          845 223 rmoveto
          201 -49 142 -89 78 vhcurveto
          14 68 vlineto
          135 75 71 126 hvcurveto
          211 -189 -152 vlineto
          -70 -36 -28 -90 vhcurveto
          -158 -61 45 -151 hhcurveto
          -340 -205 -239 -399 hvcurveto
          -225 vlineto
          -399 205 -239 340 340 205 239 399 vhcurveto
          -676 1309 172 callsubr
        </CharString>
        <CharString name="Ohornhookabove">
          443 1826 -58 callgsubr
          190 -1988 -83 callsubr
        </CharString>
        <CharString name="Ohorntilde">
          787 1604 -73 callsubr
          -154 -1633 -83 callsubr
        </CharString>
        <CharString name="Ohungarumlaut">
          -107 callsubr
          52 1419 rmoveto
          207 hlineto
          291 312 rlineto
          -228 hlineto
          -672 -312 rmoveto
          206 hlineto
          291 312 rlineto
          -229 hlineto
          endchar
        </CharString>
        <CharString name="Oinvertedbreve">
          -7 callgsubr
          70 -767 -99 callgsubr
        </CharString>
        <CharString name="Omacron">
          -107 callsubr
          348 1485 -70 callsubr
          endchar
        </CharString>
        <CharString name="Omacronacute">
          122 callgsubr
          -270 rmoveto
          148 -703 -148 vlineto
          52 -779 -99 callgsubr
        </CharString>
        <CharString name="Omacrongrave">
          -107 callsubr
          351 1425 90 callgsubr
        </CharString>
        <CharString name="Omegagreek">
          633 1472 rmoveto
          -374 -213 -242 -426 -265 106 -201 198 -118 hvcurveto
          -15 -310 -205 529 262 vlineto
          -201 106 -86 155 264 vvcurveto
          311 116 158 235 235 116 -158 -311 -264 -86 -155 -201 -106 vhcurveto
          -262 529 205 -310 15 vlineto
          198 118 106 201 265 vvcurveto
          426 -213 242 -374 vhcurveto
          endchar
        </CharString>
        <CharString name="Omegatonosgreek">
          751 1472 rmoveto
          -310 -171 -233 -427 -294 80 -216 170 -99 hvcurveto
          -15 -252 -188 424 292 vlineto
          -150 99 -61 129 288 vvcurveto
          305 88 143 182 182 88 -143 -305 -287 -61 -130 -150 -99 vhcurveto
          -292 424 188 -252 15 vlineto
          170 100 80 215 294 vvcurveto
          427 -170 233 -311 vhcurveto
          -747 -390 8 callgsubr
        </CharString>
        <CharString name="Omicrongreek">
          -107 callsubr
          endchar
        </CharString>
        <CharString name="Omicrontonosgreek">
          1198 609 rmoveto
          225 vlineto
          422 -148 216 -285 -284 -148 -216 -422 vhcurveto
          -225 vlineto
          -422 148 -216 284 285 148 216 422 vhcurveto
          -433 -422 rmoveto
          -144 -75 135 268 hvcurveto
          263 vlineto
          268 75 135 144 145 75 -135 -268 vhcurveto
          -263 vlineto
          -268 -75 -135 -145 vhcurveto
          -720 895 rmoveto
          168 hlineto
          136 361 rlineto
          -224 hlineto
          endchar
        </CharString>
        <CharString name="Oogonek">
          633 187 -41 callsubr
        </CharString>
        <CharString name="Oogonekmacron">
          981 94 callgsubr
          348 -1485 -41 callsubr
        </CharString>
        <CharString name="Oslash">
          933 611 -43 callgsubr
        </CharString>
        <CharString name="Oslashacute">
          993 29 callgsubr
          256 -995 -43 callgsubr
        </CharString>
        <CharString name="Otilde">
          -107 callsubr
          154 1417 -73 callsubr
          endchar
        </CharString>
        <CharString name="Otildeacute">
          -107 callsubr
          -93 1732 rmoveto
          200 hlineto
          162 229 132 callsubr
          105 -592 -64 callgsubr
          endchar
        </CharString>
        <CharString name="Otildedieresis">
          -107 callsubr
          148 1369 -64 callgsubr
          -362 339 rmoveto
          65 54 54 68 67 -54 55 -65 -66 -53 -55 -67 -68 53 -54 66 hvcurveto
          428 hmoveto
          66 53 54 68 67 -53 55 -66 -65 -54 -55 -67 -68 54 -54 65 hvcurveto
          endchar
        </CharString>
        <CharString name="Otildemacron">
          -107 callsubr
          352 1775 rmoveto
          147 -704 -147 vlineto
          500 -406 -64 callgsubr
          endchar
        </CharString>
        <CharString name="P">
          -65 callgsubr
          endchar
        </CharString>
        <CharString name="Pacute">
          -65 callgsubr
          42 921 71 callgsubr
        </CharString>
        <CharString name="Pdotaccent">
          -65 callgsubr
          173 930 26 callgsubr
        </CharString>
        <CharString name="Pecyrillic">
          1161 81 callsubr
          -1056 -1443 242 1232 572 -1232 242 hlineto
          endchar
        </CharString>
        <CharString name="Phigreek">
          526 -95 rmoveto
          214 161 hlineto
          309 15 168 230 405 vvcurveto
          404 -168 230 -309 16 vhcurveto
          159 -214 -159 vlineto
          -309 -16 -168 -230 -404 vvcurveto
          -405 168 -230 309 -15 vhcurveto
          7 182 rmoveto
          -186 15 -93 154 299 vvcurveto
          298 93 155 186 16 vhcurveto
          200 -937 rmoveto
          937 vlineto
          186 -16 93 -157 -296 vvcurveto
          -299 -93 -154 -186 -15 vhcurveto
          endchar
        </CharString>
        <CharString name="Pigreek">
          139 hmoveto
          242 1232 504 -1232 242 -50 callgsubr
          -988 hlineto
          endchar
        </CharString>
        <CharString name="Psigreek">
          518 hmoveto
          231 314 hlineto
          320 19 119 141 390 vvcurveto
          579 -208 -560 vlineto
          -284 -57 -83 -186 -10 vhcurveto
          937 -208 -937 vlineto
          -186 10 -57 83 284 vvcurveto
          560 -208 -579 vlineto
          -390 118 -140 322 -20 vhcurveto
          endchar
        </CharString>
        <CharString name="Q">
          793 461 rmoveto
          -237 hlineto
          167 -273 rlineto
          -8 -28 -30 -4 -32 hhcurveto
          -195 -110 149 283 hvcurveto
          216 vlineto
          283 110 149 195 195 110 -149 -283 vhcurveto
          -216 vlineto
          -121 -20 -97 -38 -70 vhcurveto
          298 514 rmoveto
          401 -206 237 -339 -339 -206 -237 -401 vhcurveto
          -225 vlineto
          -401 206 -237 339 74 68 11 22 61 vhcurveto
          101 -165 rlineto
          237 hlineto
          -167 273 rlineto
          110 109 61 170 218 vvcurveto
          endchar
        </CharString>
        <CharString name="R">
          -90 callgsubr
          endchar
        </CharString>
        <CharString name="Racute">
          -90 callgsubr
          54 1057 -73 callgsubr
          endchar
        </CharString>
        <CharString name="Rcaron">
          976 -71 callsubr
          -39 -1052 -37 callsubr
        </CharString>
        <CharString name="Rcommaaccent">
          -90 callgsubr
          241 -1052 rmoveto
          151 -35 callgsubr
        </CharString>
        <CharString name="Rdblgrave">
          639 9 callgsubr
          290 -312 rlineto
          207 hlineto
          149 -1057 -37 callsubr
        </CharString>
        <CharString name="Rdotaccent">
          -90 callgsubr
          185 1066 4 callsubr
        </CharString>
        <CharString name="Rdotbelow">
          -90 callgsubr
          243 -1014 rmoveto
          80 66 67 81 81 -66 68 -80 -79 -66 -68 -81 -81 66 -67 79 hvcurveto
          endchar
        </CharString>
        <CharString name="Rdotbelowmacron">
          -90 callgsubr
          243 -1014 rmoveto
          80 66 67 81 81 -66 68 -80 -79 -66 -68 -81 -81 66 -67 79 hvcurveto
          290 2137 -70 callsubr
          endchar
        </CharString>
        <CharString name="Rhogreek">
          -65 callgsubr
          endchar
        </CharString>
        <CharString name="Rinvertedbreve">
          386 1599 rmoveto
          107 1 80 72 117 hhcurveto
          116 81 -72 -107 1 hvcurveto
          172 hlineto
          191 -147 133 -223 -223 -147 -133 -191 vhcurveto
          440 -1050 -37 callsubr
        </CharString>
        <CharString name="Rlinebelow">
          -90 callgsubr
          591 -955 37 callsubr
        </CharString>
        <CharString name="S">
          112 396 -104 callgsubr
          endchar
        </CharString>
        <CharString name="Sacute">
          112 396 -104 callgsubr
          168 1210 71 callgsubr
        </CharString>
        <CharString name="Sacutedotaccent">
          112 396 -104 callgsubr
          273 1210 -73 callgsubr
          -454 -267 rmoveto
          79 66 67 82 81 -66 -86 callgsubr
          endchar
        </CharString>
        <CharString name="Scaron">
          1034 1925 rmoveto
          9 callsubr
          218 hlineto
          -639 -1205 -104 callgsubr
          endchar
        </CharString>
        <CharString name="Scarondotaccent">
          112 396 -104 callgsubr
          299 1496 136 callgsubr
          118 -313 rmoveto
          277 254 rlineto
          -229 hlineto
          -157 -146 rlineto
          -17 hlineto
          -157 146 rlineto
          -230 hlineto
          278 -254 rlineto
          endchar
        </CharString>
        <CharString name="Scedilla">
          626 855 rmoveto
          -169 39 -70 63 111 vvcurveto
          125 97 75 160 152 99 -78 -132 13 vhcurveto
          230 hlineto
          250 -9 -197 164 -290 hhcurveto
          -303 -194 -166 -259 -212 126 -133 264 -63 hvcurveto
          139 -33 rlineto
          178 -42 72 -62 -109 vvcurveto
          -133 -109 -85 -170 -176 -112 82 139 -14 156 callgsubr
          11 -242 169 -155 271 -25 -45 -107 rcurveline
          -60 callsubr
          38 93 rlineto
          277 25 168 163 251 vvcurveto
          219 -120 124 -279 65 vhcurveto
          endchar
        </CharString>
        <CharString name="Scircumflex">
          112 396 -104 callgsubr
          408 1534 86 callsubr
        </CharString>
        <CharString name="Scommaaccent">
          112 396 -104 callgsubr
          297 -900 rmoveto
          150 -35 callgsubr
        </CharString>
        <CharString name="Sdotaccent">
          112 396 -104 callgsubr
          299 1219 rmoveto
          -20 callsubr
        </CharString>
        <CharString name="Sdotbelow">
          112 396 -104 callgsubr
          299 -852 rmoveto
          -20 callsubr
        </CharString>
        <CharString name="Sdotbelowdotaccent">
          112 396 -104 callgsubr
          299 -862 -52 callgsubr
          2081 vmoveto
          -20 callsubr
        </CharString>
        <CharString name="Shacyrillic">
          1193 hmoveto
          -50 callgsubr
          -196 -1242 -266 1242 -196 -1242 -266 1242 -196 191 callsubr
        </CharString>
        <CharString name="Shchacyrillic">
          1075 -285 rmoveto
          191 486 -126 1242 -196 -1248 -254 1248 -196 -1248 -254 1248 -196 -1443 1031 hlineto
          endchar
        </CharString>
        <CharString name="Sigmagreek">
          127 hmoveto
          981 211 -678 15 hlineto
          318 492 rlineto
          32 vlineto
          -296 467 rlineto
          15 637 211 -942 -186 vlineto
          346 -531 -366 -567 rlineto
          endchar
        </CharString>
        <CharString name="Softsigncyrillic">
          400 734 rmoveto
          242 hlineto
          183 105 -97 -168 -168 -105 -97 -183 hvcurveto
          -242 hlineto
          305 -204 rmoveto
          282 189 187 281 280 -193 187 -289 hvcurveto
          -294 508 -242 -1443 hlineto
          endchar
        </CharString>
        <CharString name="T">
          -16 callsubr
          endchar
        </CharString>
        <CharString name="Taugreek">
          -16 callsubr
          endchar
        </CharString>
        <CharString name="Tbar">
          1176 1232 rmoveto
          211 -1086 -211 422 -436 -289 -179 289 -617 242 617 289 179 -289 436 vlineto
          endchar
        </CharString>
        <CharString name="Tcaron">
          1025 -71 callsubr
          12 -1601 rmoveto
          1232 422 211 -1086 -211 422 -1232 vlineto
          endchar
        </CharString>
        <CharString name="Tcedilla">
          -45 callsubr
          53 vlineto
          -56 -133 rlineto
          -104 58 vlineto
          46 callgsubr
          endchar
        </CharString>
        <CharString name="Tcircumflexbelow">
          -16 callsubr
          -6 -162 -98 callgsubr
          endchar
        </CharString>
        <CharString name="Tcommaaccent">
          -16 callsubr
          109 -504 rmoveto
          151 -35 callgsubr
        </CharString>
        <CharString name="Tdotaccent">
          -16 callsubr
          121 1615 -48 callgsubr
          endchar
        </CharString>
        <CharString name="Tdotbelow">
          -16 callsubr
          121 59 callsubr
          endchar
        </CharString>
        <CharString name="Tecyrillic">
          -16 callsubr
          endchar
        </CharString>
        <CharString name="Thetagreek">
          633 187 rmoveto
          -204 -123 157 267 hvcurveto
          221 vlineto
          267 123 157 204 204 123 -157 -267 199 callsubr
          -267 -123 -157 -204 vhcurveto
          555 422 rmoveto
          225 vlineto
          398 -209 240 -346 -346 -209 -240 -398 vhcurveto
          -225 vlineto
          -398 209 -240 346 346 209 240 398 vhcurveto
          -769 6 rmoveto
          428 208 -428 hlineto
          endchar
        </CharString>
        <CharString name="Thorn">
          177 196 callsubr
          253 307 280 vlineto
          274 182 183 264 264 -176 182 -270 hvcurveto
          -290 243 hlineto
          -461 vmoveto
          220 hlineto
          172 85 -78 -151 -151 -85 -79 -172 hvcurveto
          -220 hlineto
          endchar
        </CharString>
        <CharString name="Tlinebelow">
          -16 callsubr
          469 -407 -70 callsubr
          endchar
        </CharString>
        <CharString name="Tsecyrillic">
          1265 211 rmoveto
          -148 1232 -242 -1232 -535 1232 -242 -1443 948 -285 219 hlineto
          endchar
        </CharString>
        <CharString name="Tshecyrillic">
          977 hmoveto
          233 475 hlineto
          271 -124 152 -253 -160 -88 -56 -31 -34 vhcurveto
          -13 421 336 211 -874 -211 305 -1232 233 587 hlineto
          37 32 76 57 118 hhcurveto
          147 66 -90 -152 hvcurveto
          endchar
        </CharString>
        <CharString name="U">
          -103 callsubr
          endchar
        </CharString>
        <CharString name="Uacute">
          -103 callsubr
          -132 1417 -73 callgsubr
          endchar
        </CharString>
        <CharString name="Ubreve">
          -103 callsubr
          -372 1734 rmoveto
          44 callgsubr
          224 147 133 191 vhcurveto
          -172 hlineto
          64 callgsubr
          endchar
        </CharString>
        <CharString name="Ucaron">
          1023 28 callsubr
          218 hlineto
          -391 -158 -66 callsubr
        </CharString>
        <CharString name="Ucircumflex">
          -103 callsubr
          107 1741 rmoveto
          -218 3 callgsubr
        </CharString>
        <CharString name="Ucircumflexbelow">
          -103 callsubr
          -128 -351 -89 callgsubr
          endchar
        </CharString>
        <CharString name="Ucyrillic">
          1217 1443 -81 callgsubr
          endchar
        </CharString>
        <CharString name="Udblgrave">
          687 127 callsubr
          -227 95 callgsubr
          -204 -163 -66 callsubr
        </CharString>
        <CharString name="Udieresis">
          -103 callsubr
          -221 1444 -5 callsubr
        </CharString>
        <CharString name="Udieresisacute">
          -103 callsubr
          -131 1707 rmoveto
          206 hlineto
          217 234 rlineto
          -241 hlineto
          -267 -566 49 callgsubr
        </CharString>
        <CharString name="Udieresisbelow">
          -103 callsubr
          -221 -645 rmoveto
          76 callgsubr
          76 -62 -63 callgsubr
          140 callsubr
          73 hvcurveto
          endchar
        </CharString>
        <CharString name="Udieresiscaron">
          -103 callsubr
          109 1692 rmoveto
          278 276 rlineto
          -224 hlineto
          -156 -162 rlineto
          -17 hlineto
          -156 162 rlineto
          -224 hlineto
          278 -276 rlineto
          -104 -317 49 callgsubr
        </CharString>
        <CharString name="Udieresisgrave">
          418 1564 rmoveto
          14 callsubr
          429 hmoveto
          5 callsubr
          -70 -58 -59 -73 -73 58 -59 70 hvcurveto
          -266 566 rmoveto
          -241 hlineto
          217 -234 rlineto
          206 hlineto
          -414 -453 -66 callsubr
        </CharString>
        <CharString name="Udieresismacron">
          847 1828 rmoveto
          -70 -58 -59 -73 -73 58 -59 70 71 57 59 73 73 -57 58 callgsubr
          -69 -385 -66 callsubr
        </CharString>
        <CharString name="Udotbelow">
          -103 callsubr
          -2 -655 -52 callgsubr
          endchar
        </CharString>
        <CharString name="Ugrave">
          475 -22 callsubr
          -412 -163 -66 callsubr
        </CharString>
        <CharString name="Uhookabove">
          -103 callsubr
          -192 1637 rmoveto
          12 25 43 9 42 hhcurveto
          66 41 -31 -46 -43 -42 -41 -60 -22 hvcurveto
          79 111 callsubr
        </CharString>
        <CharString name="Uhorn">
          624 -29 -75 callsubr
        </CharString>
        <CharString name="Uhornacute">
          443 29 callsubr
          -105 -1947 -75 callsubr
        </CharString>
        <CharString name="Uhorndotbelow">
          46 callsubr
          -9 437 -75 callsubr
        </CharString>
        <CharString name="Uhorngrave">
          1136 1278 rmoveto
          37 hlineto
          133 79 74 125 hvcurveto
          225 -189 -177 vlineto
          -53 -33 -29 -60 vhcurveto
          -209 -937 hlineto
          -203 -98 -114 -172 -172 -98 114 203 vhcurveto
          937 -242 -936 vlineto
          -342 186 -194 326 325 187 194 342 vhcurveto
          -659 1411 172 callsubr
        </CharString>
        <CharString name="Uhornhookabove">
          443 1826 -58 callgsubr
          181 -1988 -75 callsubr
        </CharString>
        <CharString name="Uhorntilde">
          787 1604 -73 callsubr
          -163 -1633 -75 callsubr
        </CharString>
        <CharString name="Uhungarumlaut">
          -103 callsubr
          51 1417 34 callgsubr
          -672 -312 34 callgsubr
          endchar
        </CharString>
        <CharString name="Uinvertedbreve">
          433 133 callsubr
          172 hlineto
          191 -147 133 -224 -223 -147 -133 -191 vhcurveto
          88 -156 -66 callsubr
        </CharString>
        <CharString name="Umacron">
          -103 callsubr
          346 1483 49 callsubr
        </CharString>
        <CharString name="Umacrondieresis">
          -103 callsubr
          -216 1696 rmoveto
          71 58 58 74 73 -58 59 -71 -70 -58 -59 -73 -74 58 -58 70 hvcurveto
          -138 -273 55 callsubr
          567 125 rmoveto
          71 58 58 74 73 -58 59 -71 -70 -58 -59 -73 -74 58 -58 70 hvcurveto
          endchar
        </CharString>
        <CharString name="Uogonek">
          861 -443 rmoveto
          47 43 7 12 32 hvcurveto
          142 vlineto
          -5 -20 -23 -3 -26 hhcurveto
          -75 -47 45 72 71 46 63 108 78 hvcurveto
          146 106 66 146 216 vvcurveto
          936 -241 -922 vlineto
          -212 -103 -120 -181 -181 -103 120 212 vhcurveto
          922 -241 -936 vlineto
          -331 192 -205 310 44 54 10 14 33 vhcurveto
          -16 vlineto
          -93 -63 -43 -67 -84 vvcurveto
          -122 106 -86 150 vhcurveto
          endchar
        </CharString>
        <CharString name="Upsilondieresisgreek">
          -92 callsubr
          -98 1633 -90 callsubr
        </CharString>
        <CharString name="Upsilongreek">
          -92 callsubr
          endchar
        </CharString>
        <CharString name="Upsilontonosgreek">
          927 hmoveto
          549 vlineto
          328 894 rlineto
          -236 hlineto
          -196 -634 rlineto
          -16 hlineto
          -196 634 rlineto
          -237 hlineto
          330 -894 rlineto
          -549 vlineto
          -675 1082 8 callgsubr
        </CharString>
        <CharString name="Uring">
          -103 callsubr
          -1 1364 rmoveto
          112 86 85 111 111 -86 84 -112 -113 -86 -84 -111 -111 86 -85 113 hvcurveto
          -1 99 rmoveto
          -56 -42 41 55 56 42 41 56 56 43 -41 -56 -55 -42 -41 -57 hvcurveto
          endchar
        </CharString>
        <CharString name="Ushortcyrillic">
          1217 1443 -81 callgsubr
          -512 1530 50 callsubr
          -111 -2 131 callgsubr
          endchar
        </CharString>
        <CharString name="Utilde">
          -103 callsubr
          152 1415 rmoveto
          134 94 148 callsubr
          -35 -42 -54 -89 -37 146 -164 hhcurveto
          -135 -94 -107 -181 hvcurveto
          154 hlineto
          93 3 33 43 56 99 33 -146 158 hhcurveto
          endchar
        </CharString>
        <CharString name="Utildeacute">
          -103 callsubr
          -94 1730 rmoveto
          200 hlineto
          161 229 rlineto
          -225 hlineto
          104 -592 rmoveto
          132 96 99 162 hvcurveto
          -153 hlineto
          -78 -3 -35 -36 -51 -100 -19 127 -163 hhcurveto
          -132 -95 -98 -165 hvcurveto
          153 hlineto
          78 3 32 38 54 100 18 -127 163 hhcurveto
          endchar
        </CharString>
        <CharString name="Utildebelow">
          -103 callsubr
          -138 -509 rmoveto
          82 46 24 callgsubr
          -149 -95 -121 -190 hvcurveto
          167 hlineto
          98 28 49 55 vhcurveto
          endchar
        </CharString>
        <CharString name="V">
          7 callgsubr
          endchar
        </CharString>
        <CharString name="Vdotbelow">
          7 callgsubr
          -342 -1909 rmoveto
          7 callsubr
        </CharString>
        <CharString name="Vecyrillic">
          -96 callgsubr
          endchar
        </CharString>
        <CharString name="Vtilde">
          7 callgsubr
          -188 161 -73 callsubr
          endchar
        </CharString>
        <CharString name="W">
          640 869 -95 callgsubr
          endchar
        </CharString>
        <CharString name="Wacute">
          640 869 -95 callgsubr
          -123 737 -73 callgsubr
          endchar
        </CharString>
        <CharString name="Wcircumflex">
          640 869 -95 callgsubr
          117 1061 rmoveto
          -219 3 callgsubr
        </CharString>
        <CharString name="Wdieresis">
          640 869 -95 callgsubr
          -212 764 -5 callgsubr
        </CharString>
        <CharString name="Wdotaccent">
          640 869 -95 callgsubr
          7 746 rmoveto
          -20 callsubr
        </CharString>
        <CharString name="Wdotbelow">
          640 869 -95 callgsubr
          7 -1335 rmoveto
          7 callsubr
        </CharString>
        <CharString name="Wgrave">
          477 1918 rmoveto
          11 callgsubr
          231 hlineto
          -124 -737 -95 callgsubr
          endchar
        </CharString>
        <CharString name="X">
          -62 callgsubr
          endchar
        </CharString>
        <CharString name="Xacyrillic">
          -62 callgsubr
          endchar
        </CharString>
        <CharString name="Xdieresis">
          -62 callgsubr
          -72 907 -90 callsubr
        </CharString>
        <CharString name="Xdotaccent">
          -62 callgsubr
          147 889 -48 callgsubr
          endchar
        </CharString>
        <CharString name="Xigreek">
          150 hmoveto
          966 217 -966 hlineto
          82 403 rmoveto
          802 215 -802 hlineto
          -82 391 rmoveto
          966 217 -966 hlineto
          endchar
        </CharString>
        <CharString name="Y">
          -92 callsubr
          endchar
        </CharString>
        <CharString name="Yacute">
          -92 callsubr
          -14 29 callsubr
          endchar
        </CharString>
        <CharString name="Ycircumflex">
          -92 callsubr
          230 1930 -50 callsubr
          endchar
        </CharString>
        <CharString name="Ydieresis">
          -92 callsubr
          -98 1633 -90 callsubr
        </CharString>
        <CharString name="Ydotaccent">
          -92 callsubr
          121 1615 -48 callgsubr
          endchar
        </CharString>
        <CharString name="Ydotbelow">
          -92 callsubr
          121 59 callsubr
          endchar
        </CharString>
        <CharString name="Yericyrillic">
          291 734 -70 callgsubr
        </CharString>
        <CharString name="Ygrave">
          481 1918 rmoveto
          11 callgsubr
          231 hlineto
          -14 -1606 rmoveto
          559 vlineto
          470 884 77 callsubr
          -319 -634 rlineto
          -16 hlineto
          -319 634 77 callsubr
          470 -884 rlineto
          -559 vlineto
          endchar
        </CharString>
        <CharString name="Yhookabove">
          -92 callsubr
          -69 41 callsubr
        </CharString>
        <CharString name="Yicyrillic">
          1050 hmoveto
          -91 callgsubr
          198 1633 -90 callsubr
        </CharString>
        <CharString name="Ymacron">
          -92 callsubr
          469 94 callgsubr
          endchar
        </CharString>
        <CharString name="Ytilde">
          -92 callsubr
          275 27 callsubr
        </CharString>
        <CharString name="Z">
          134 hmoveto
          -58 callsubr
          endchar
        </CharString>
        <CharString name="Zacute">
          134 hmoveto
          -58 callsubr
          376 1439 -73 callgsubr
          endchar
        </CharString>
        <CharString name="Zcaron">
          1032 28 callsubr
          219 hlineto
          -616 -1601 rmoveto
          -58 callsubr
          endchar
        </CharString>
        <CharString name="Zcircumflex">
          134 hmoveto
          -58 callsubr
          616 1763 rmoveto
          -219 3 callgsubr
        </CharString>
        <CharString name="Zdotaccent">
          134 hmoveto
          -58 callsubr
          507 1448 27 callgsubr
        </CharString>
        <CharString name="Zdotbelow">
          134 hmoveto
          -58 callsubr
          499 -633 rmoveto
          7 callsubr
        </CharString>
        <CharString name="Zecyrillic">
          436 636 -67 callgsubr
          endchar
        </CharString>
        <CharString name="Zetagreek">
          134 hmoveto
          -58 callsubr
          endchar
        </CharString>
        <CharString name="Zhecyrillic">
          -42 callgsubr
          endchar
        </CharString>
        <CharString name="Zlinebelow">
          134 hmoveto
          -58 callsubr
          847 -574 -70 callsubr
          endchar
        </CharString>
        <CharString name="a">
          -107 callgsubr
          endchar
        </CharString>
        <CharString name="aacute">
          735 -89 callsubr
          326 -797 -101 callgsubr
        </CharString>
        <CharString name="abreve">
          -107 callgsubr
          45 1245 rmoveto
          -122 160 callgsubr
          -202 145 -142 232 231 145 115 callsubr
          -183 141 callgsubr
          -122 hhcurveto
          endchar
        </CharString>
        <CharString name="abreveacute">
          -107 callgsubr
          -51 1482 rmoveto
          176 189 callgsubr
          -216 hlineto
          -85 -561 48 callgsubr
          endchar
        </CharString>
        <CharString name="abrevedotbelow">
          -107 callgsubr
          58 1245 48 callgsubr
          -25 -1883 -21 callgsubr
        </CharString>
        <CharString name="abrevegrave">
          256 1603 rmoveto
          -202 146 25 callgsubr
          -184 141 callgsubr
          -122 hhcurveto
          -122 -71 77 109 hvcurveto
          108 169 callsubr
          89 -1155 -101 callgsubr
        </CharString>
        <CharString name="abrevehookabove">
          -107 callgsubr
          58 1244 48 callgsubr
          -199 435 197 callsubr
          39 hhcurveto
          65 41 -32 -48 -44 -41 167 callsubr
          80 -101 210 callsubr
          68 82 103 vvcurveto
          118 -93 79 -132 -60 -55 -12 -15 -36 vhcurveto
          endchar
        </CharString>
        <CharString name="abrevetilde">
          -107 callgsubr
          58 1245 rmoveto
          -122 -70 76 110 183 callsubr
          -203 146 -141 231 232 145 141 203 vhcurveto
          -183 hlineto
          -110 -1 -70 -76 -123 hhcurveto
          -136 422 102 callsubr
          151 hhcurveto
          148 96 121 188 31 callsubr
          -28 -48 -55 98 callsubr
        </CharString>
        <CharString name="acaron">
          760 -35 callsubr
          324 -797 -101 callgsubr
        </CharString>
        <CharString name="acircumflex">
          -48 callsubr
          endchar
        </CharString>
        <CharString name="acircumflexacute">
          -107 callgsubr
          270 1478 rmoveto
          196 189 callgsubr
          -230 hlineto
          -538 -347 -89 callgsubr
          endchar
        </CharString>
        <CharString name="acircumflexdotbelow">
          -48 callsubr
          -152 -2083 27 callgsubr
        </CharString>
        <CharString name="acircumflexgrave">
          -107 callgsubr
          554 1478 rmoveto
          -200 324 rlineto
          -230 hlineto
          233 -324 rlineto
          -425 -23 -89 callgsubr
          endchar
        </CharString>
        <CharString name="acircumflexhookabove">
          -48 callsubr
          13 220 197 callsubr
          39 hhcurveto
          65 41 -33 -48 -43 -42 -41 -60 134 callsubr
          -60 -55 -13 -15 -36 vhcurveto
          endchar
        </CharString>
        <CharString name="acircumflextilde">
          -107 callgsubr
          -80 1684 rmoveto
          87 42 -146 161 hhcurveto
          146 89 113 184 hvcurveto
          -162 hlineto
          -99 -2 -26 -42 -59 -86 -43 144 -160 hhcurveto
          -147 93 callsubr
          26 44 59 hhcurveto
          12 -229 -89 callgsubr
          endchar
        </CharString>
        <CharString name="acute">
          611 -89 callsubr
          endchar
        </CharString>
        <CharString name="acutecmb">
          -107 102 -89 callsubr
          endchar
        </CharString>
        <CharString name="acutecmb.short">
          349 29 callsubr
          endchar
        </CharString>
        <CharString name="acutedotaccentcmb">
          47 callgsubr
          endchar
        </CharString>
        <CharString name="acutedotaccentcmb.short">
          607 29 callsubr
          -454 -267 -21 callgsubr
        </CharString>
        <CharString name="acyrillic">
          -107 callgsubr
          endchar
        </CharString>
        <CharString name="adblgrave">
          742 1644 88 callsubr
          291 -797 -101 callgsubr
        </CharString>
        <CharString name="adieresis">
          -107 callgsubr
          -151 1120 rmoveto
          73 63 63 76 76 -63 -79 callgsubr
        </CharString>
        <CharString name="adieresismacron">
          853 1566 rmoveto
          113 callsubr
          72 97 callsubr
          -72 hvcurveto
          -439 hmoveto
          -73 -62 -63 -76 -76 62 42 callgsubr
          546 -1225 -101 callgsubr
        </CharString>
        <CharString name="adotaccent">
          -107 callgsubr
          58 1117 -52 callgsubr
          endchar
        </CharString>
        <CharString name="adotbelow">
          -107 callgsubr
          33 -638 -21 callgsubr
        </CharString>
        <CharString name="adotmacron">
          -107 callgsubr
          406 1554 -70 callsubr
          348 -453 rmoveto
          80 66 67 81 81 -66 68 -80 -79 -66 -68 -81 -81 66 -67 79 hvcurveto
          endchar
        </CharString>
        <CharString name="ae">
          1218 329 rmoveto
          -174 hlineto
          -85 callsubr
          -195 330 rmoveto
          -296 hlineto
          63 callsubr
          -658 -480 rmoveto
          -79 -43 48 90 87 56 59 93 9 hvcurveto
          142 14 rlineto
          -85 vlineto
          -133 -69 -89 -100 vhcurveto
          endchar
        </CharString>
        <CharString name="aeacute">
          741 -89 callsubr
          23 -810 rmoveto
          -85 vlineto
          -133 -69 -89 -100 -79 -43 48 90 87 56 59 93 9 vhcurveto
          335 187 rmoveto
          63 callsubr
          21 -330 rmoveto
          -85 callsubr
          endchar
        </CharString>
        <CharString name="aemacron">
          1218 329 rmoveto
          -174 hlineto
          -85 callsubr
          -195 330 rmoveto
          -296 hlineto
          63 callsubr
          -658 -480 rmoveto
          -79 -43 48 90 87 56 59 93 9 hvcurveto
          142 14 rlineto
          -85 vlineto
          -133 -69 -89 -100 vhcurveto
          622 1183 37 callsubr
        </CharString>
        <CharString name="agrave">
          -107 callgsubr
          248 1124 -33 callgsubr
          endchar
        </CharString>
        <CharString name="ahookabove">
          -107 callgsubr
          -120 1333 rmoveto
          14 29 42 9 40 hhcurveto
          65 41 13 callgsubr
        </CharString>
        <CharString name="ainvertedbreve">
          1010 1259 57 callgsubr
          4 -760 -101 callgsubr
        </CharString>
        <CharString name="alphagreek">
          339 631 -26 callsubr
        </CharString>
        <CharString name="alphatonosgreek">
          483 1282 53 callsubr
          -262 hlineto
          -225 -1014 -26 callsubr
        </CharString>
        <CharString name="amacron">
          -107 callgsubr
          406 1190 11 callsubr
          endchar
        </CharString>
        <CharString name="ampersand">
          984 hmoveto
          252 hlineto
          -233 283 68 104 41 151 3 163 rlinecurve
          34 -187 -20 vlineto
          -2 -113 -16 -88 -30 -63 -269 328 rcurveline
          182 119 76 113 140 vvcurveto
          190 -139 131 -198 -203 -143 -131 -190 -108 52 -112 111 -128 vhcurveto
          -52 -34 rlineto
          -167 -107 -82 -129 -160 vvcurveto
          -233 180 -167 255 151 138 54 102 107 vhcurveto
          -462 511 rmoveto
          34 23 320 -391 rlineto
          -72 -64 -95 -39 -109 hhcurveto
          -145 -100 94 136 100 52 83 107 66 hvcurveto
          111 655 rmoveto
          86 64 -64 -85 -91 -48 -69 -125 -84 hvcurveto
          -89 100 -38 74 70 vvcurveto
          85 64 64 86 vhcurveto
          endchar
        </CharString>
        <CharString name="anoteleia">
          634 760 129 callgsubr
        </CharString>
        <CharString name="aogonek">
          575 172 rmoveto
          -117 -74 59 95 97 71 56 137 8 hvcurveto
          239 13 rlineto
          -100 vlineto
          -133 -108 -95 -148 vhcurveto
          265 -172 rmoveto
          -110 -65 -53 -79 -96 vvcurveto
          -124 101 -85 148 49 58 10 12 28 vhcurveto
          149 vlineto
          -6 -15 -28 -3 -28 hhcurveto
          -71 -45 37 59 74 66 72 103 40 hvcurveto
          18 5 rlineto
          746 vlineto
          234 -154 133 -271 -246 -177 -124 -189 -20 56 callsubr
          79 24 78 46 107 hhcurveto
          128 73 -64 -112 hvcurveto
          -93 vlineto
          -274 -15 rlineto
          -262 -17 -142 -115 -196 vvcurveto
          -198 139 -132 208 149 117 62 109 53 vhcurveto
          21 hlineto
          endchar
        </CharString>
        <CharString name="approxequal">
          462 752 rmoveto
          45 41 -33 -54 56 hvcurveto
          -61 67 65 -37 80 hhcurveto
          176 99 144 219 hvcurveto
          -177 hlineto
          -86 -4 -29 -64 -79 hhcurveto
          -46 -40 32 52 -54 hvcurveto
          61 204 callgsubr
          -220 hvcurveto
          176 hlineto
          86 6 30 67 74 hhcurveto
          -472 vmoveto
          45 41 -32 -54 56 hvcurveto
          -61 67 64 -37 81 hhcurveto
          176 99 145 219 hvcurveto
          -177 hlineto
          -86 -4 -29 -66 -79 hhcurveto
          -46 -40 32 52 -54 hvcurveto
          62 204 callgsubr
          -219 hvcurveto
          176 hlineto
          85 6 29 66 75 hhcurveto
          endchar
        </CharString>
        <CharString name="aring">
          -107 callgsubr
          58 1200 32 callgsubr
        </CharString>
        <CharString name="aringacute">
          100 callsubr
          93 91 120 120 -93 92 callgsubr
          57 42 -42 -56 -56 -42 -42 -57 hvcurveto
          198 -840 -101 callgsubr
        </CharString>
        <CharString name="aringbelow">
          -107 callgsubr
          33 -630 rmoveto
          -62 -47 49 62 61 47 49 62 61 47 -49 -61 -62 -47 -49 -61 hvcurveto
          -127 vmoveto
          128 105 107 131 130 -105 107 -128 -129 -105 -107 -130 -131 105 -107 129 hvcurveto
          endchar
        </CharString>
        <CharString name="arrowleftright">
          821 226 rmoveto
          486 489 -486 489 -129 -127 142 -132 185 -137 rlineto
          -14 vlineto
          -229 13 rlineto
          -314 hlineto
          -229 -13 rlineto
          14 vlineto
          185 137 142 132 -129 127 -486 -489 486 -489 129 127 -142 132 -185 137 rlineto
          14 vlineto
          229 -13 rlineto
          314 hlineto
          229 13 rlineto
          -14 vlineto
          -185 -137 -142 -132 rlineto
          endchar
        </CharString>
        <CharString name="asciicircum">
          624 1188 rmoveto
          18 hlineto
          227 -536 rlineto
          239 hlineto
          -360 791 rlineto
          -229 hlineto
          -360 -791 rlineto
          239 hlineto
          endchar
        </CharString>
        <CharString name="asciitilde">
          422 938 rmoveto
          -181 -117 -142 -222 -1 hvcurveto
          -11 1 -15 1 -12 vhcurveto
          200 hlineto
          120 4 42 58 77 hhcurveto
          42 35 -21 -66 64 hvcurveto
          -92 91 72 -35 95 hhcurveto
          180 116 144 221 10 -1 15 -1 12 hvcurveto
          -197 hlineto
          -117 -5 -41 -61 -73 hhcurveto
          -45 -37 22 64 -63 hvcurveto
          94 -93 -70 34 -95 hhcurveto
          endchar
        </CharString>
        <CharString name="asterisk">
          1188 851 rmoveto
          -94 168 -383 -240 16 450 rlineto
          -188 hlineto
          16 -450 -383 241 -94 -169 394 -210 -394 -210 94 -168 383 240 -16 -450 rlineto
          188 hlineto
          -16 450 383 -241 94 169 -395 210 rlineto
          endchar
        </CharString>
        <CharString name="at">
          674 -202 rmoveto
          90 98 15 22 48 hvcurveto
          134 vlineto
          -19 -41 -91 -13 -90 hhcurveto
          -307 -132 192 450 hvcurveto
          129 vlineto
          443 119 186 279 264 125 -169 -364 vhcurveto
          -265 vlineto
          -88 -32 -33 -85 vhcurveto
          -147 428 hlineto
          80 -44 51 -67 -67 -43 -51 -80 vhcurveto
          -425 vlineto
          -80 49 -51 78 vhcurveto
          270 hlineto
          146 83 94 165 hvcurveto
          285 vlineto
          423 -183 221 -345 -363 -183 -255 -513 vhcurveto
          -153 vlineto
          -509 189 -250 382 vhcurveto
          endchar
        </CharString>
        <CharString name="atilde">
          -107 callgsubr
          -78 1242 rmoveto
          157 callsubr
          -167 hlineto
          -96 -28 -47 -55 vhcurveto
          -82 -46 -1 callgsubr
          10 callsubr
          28 50 55 vhcurveto
          endchar
        </CharString>
        <CharString name="austral">
          1246 hmoveto
          -123 377 rlineto
          88 138 -132 hlineto
          -54 163 rlineto
          186 138 -231 hlineto
          -203 627 rlineto
          -288 hlineto
          -204 -627 rlineto
          -231 -138 187 hlineto
          -54 -163 rlineto
          -133 -138 89 hlineto
          -123 -377 rlineto
          243 hlineto
          117 377 rlineto
          506 hlineto
          116 -377 rlineto
          -582 515 rmoveto
          54 175 rlineto
          318 hlineto
          54 -175 rlineto
          -206 670 rmoveto
          119 -381 rlineto
          -252 hlineto
          119 381 rlineto
          endchar
        </CharString>
        <CharString name="b">
          -76 callsubr
          endchar
        </CharString>
        <CharString name="backslash">
          1095 -186 rmoveto
          -688 1815 rlineto
          -236 hlineto
          693 -1815 rlineto
          endchar
        </CharString>
        <CharString name="baht">
          630 656 rmoveto
          176 -5 95 -81 -148 vvcurveto
          -152 -94 -81 -177 -3 vhcurveto
          -288 hmoveto
          470 170 -470 vlineto
          -170 1071 rmoveto
          170 -421 -170 hlineto
          288 420 rmoveto
          138 -8 81 -76 -125 vvcurveto
          -122 -79 -74 -140 -13 vhcurveto
          197 -65 rmoveto
          146 24 108 130 158 vvcurveto
          222 -160 136 -262 vhcurveto
          -29 148 -118 -148 -394 -1443 394 -142 118 142 43 hlineto
          295 179 156 252 190 -133 143 -187 16 hvcurveto
          endchar
        </CharString>
        <CharString name="bar">
          746 -483 rmoveto
          2112 -226 -2112 vlineto
          endchar
        </CharString>
        <CharString name="bdotaccent">
          -76 callsubr
          114 1103 rmoveto
          7 callsubr
        </CharString>
        <CharString name="bdotbelow">
          -76 callsubr
          -18 -652 rmoveto
          7 callsubr
        </CharString>
        <CharString name="becyrillic">
          642 175 rmoveto
          -182 -102 126 226 215 107 129 177 181 102 -123 -221 -226 -102 -126 -181 hvcurveto
          -325 657 rmoveto
          29 302 114 130 254 7 rrcurveto
          38 79 4 3 40 hvcurveto
          90 5 77 16 59 24 rrcurveto
          193 vlineto
          -42 -15 -86 -16 -109 -10 -64 -6 -66 -4 -34 -2 rrcurveto
          -402 -16 -175 -240 -536 vvcurveto
          -46 vlineto
          -430 177 -218 347 328 193 208 352 329 -178 199 -291 -169 -126 -89 -144 -59 vhcurveto
          endchar
        </CharString>
        <CharString name="betagreek">
          165 -367 rmoveto
          223 546 20 hlineto
          -127 47 111 -71 176 hhcurveto
          250 162 188 264 211 -111 135 -212 44 hvcurveto
          16 vlineto
          132 43 85 121 143 vvcurveto
          240 -162 154 -266 -283 -172 -170 -282 vhcurveto
          508 -907 rmoveto
          -175 -112 98 195 hvcurveto
          595 vlineto
          181 83 96 151 133 78 -85 -130 -137 -86 -81 -145 vhcurveto
          -81 -194 99 hlineto
          190 116 -103 -168 -160 -98 -107 -153 hvcurveto
          endchar
        </CharString>
        <CharString name="bitcoin">
          364 214 rmoveto
          438 248 vlineto
          201 100 -74 -140 -140 -95 -84 -184 hvcurveto
          -270 1010 rmoveto
          249 hlineto
          155 84 -70 -123 -129 -98 -74 -174 hvcurveto
          -216 hlineto
          456 -61 rmoveto
          153 24 116 133 151 vvcurveto
          197 -126 121 -227 18 vhcurveto
          203 -127 -201 -154 201 -127 -201 -192 -1389 192 -199 127 199 154 -199 127 200 vlineto
          270 12 152 149 229 vvcurveto
          183 -140 137 -198 16 vhcurveto
          endchar
        </CharString>
        <CharString name="blinebelow">
          -76 callsubr
          330 -593 -70 callsubr
          endchar
        </CharString>
        <CharString name="braceleft">
          1040 -186 rmoveto
          186 -101 vlineto
          -145 -29 34 168 hvcurveto
          274 vlineto
          138 -101 90 -189 8 vhcurveto
          18 vlineto
          189 8 101 91 137 vvcurveto
          275 vlineto
          168 29 34 145 vhcurveto
          101 186 -151 hlineto
          -271 -87 -86 -266 hvcurveto
          -222 vlineto
          -157 -79 -73 -226 15 vhcurveto
          -238 vlineto
          226 15 79 -73 -156 vvcurveto
          -222 vlineto
          -266 87 -86 271 vhcurveto
          endchar
        </CharString>
        <CharString name="braceright">
          377 -186 rmoveto
          271 87 86 266 hvcurveto
          222 vlineto
          156 79 73 226 -15 vhcurveto
          238 vlineto
          -226 -15 -79 73 157 vvcurveto
          222 vlineto
          266 -87 86 -271 vhcurveto
          -151 -186 101 hlineto
          145 29 -34 -168 hvcurveto
          -275 vlineto
          -137 101 -91 189 -8 vhcurveto
          -18 vlineto
          -189 -8 -101 -90 -138 vvcurveto
          -274 vlineto
          -168 -29 -34 -145 vhcurveto
          -101 -186 hlineto
          endchar
        </CharString>
        <CharString name="bracketleft">
          347 1629 rmoveto
          -1815 593 186 -362 -50 callgsubr
          357 186 vlineto
          endchar
        </CharString>
        <CharString name="bracketright">
          353 1629 rmoveto
          -186 357 -1443 -363 -186 593 1815 vlineto
          endchar
        </CharString>
        <CharString name="breve">
          633 1396 -32 callsubr
        </CharString>
        <CharString name="breveacutecmb">
          524 1654 rmoveto
          176 189 callgsubr
          -216 hlineto
          -85 -561 rmoveto
          -49 callgsubr
          endchar
        </CharString>
        <CharString name="breveacutecmb.short">
          513 1892 rmoveto
          187 hlineto
          199 238 rlineto
          -221 hlineto
          -415 -248 rmoveto
          38 callsubr
          -172 hlineto
          63 callgsubr
          endchar
        </CharString>
        <CharString name="brevebelowcmb">
          633 -317 -32 callsubr
        </CharString>
        <CharString name="brevecmb">
          633 1396 -32 callsubr
        </CharString>
        <CharString name="brevecmb.short">
          263 1923 1 callsubr
        </CharString>
        <CharString name="brevecyrillic">
          279 1588 2 callgsubr
        </CharString>
        <CharString name="brevecyrillic.short">
          279 1936 99 callsubr
          -75 -100 hhcurveto
          -100 -70 75 111 -2 hvcurveto
          endchar
        </CharString>
        <CharString name="brevegravecmb">
          256 1603 rmoveto
          91 callsubr
          231 146 115 callsubr
          -184 141 callgsubr
          -122 hhcurveto
          -122 -71 88 callgsubr
          109 169 callsubr
          endchar
        </CharString>
        <CharString name="brevegravecmb.short">
          129 callsubr
          -303 -10 rmoveto
          38 callsubr
          -172 hlineto
          63 callgsubr
          endchar
        </CharString>
        <CharString name="brevehookabovecmb">
          633 1416 rmoveto
          -49 callgsubr
          -200 435 116 callsubr
          45 67 82 154 callsubr
        </CharString>
        <CharString name="brevehookabovecmb.short">
          453 2026 rmoveto
          153 callsubr
          86 -86 rlineto
          146 callgsubr
          -182 -285 rmoveto
          146 callsubr
          -157 hlineto
          171 callgsubr
          endchar
        </CharString>
        <CharString name="brevetildecmb">
          633 1417 rmoveto
          -122 -70 76 110 183 callsubr
          -203 146 -141 231 231 146 141 203 vhcurveto
          -183 hlineto
          -110 -1 -71 -76 -122 hhcurveto
          -136 422 -96 callsubr
          endchar
        </CharString>
        <CharString name="brevetildecmb.short">
          275 1837 65 callgsubr
          341 54 rmoveto
          123 90 91 144 hvcurveto
          -146 hlineto
          69 callgsubr
          endchar
        </CharString>
        <CharString name="brokenbar">
          746 782 rmoveto
          847 -226 -847 vlineto
          226 -1266 rmoveto
          847 -226 -847 vlineto
          endchar
        </CharString>
        <CharString name="bullet">
          633 202 rmoveto
          240 197 197 242 242 -197 197 -240 -240 -197 -197 -242 -242 197 -197 240 hvcurveto
          endchar
        </CharString>
        <CharString name="c">
          1113 730 -9 callgsubr
        </CharString>
        <CharString name="cacute">
          742 -89 callsubr
          601 -11 callsubr
        </CharString>
        <CharString name="caron">
          760 1296 -59 callgsubr
          endchar
        </CharString>
        <CharString name="caroncmb">
          760 1296 -59 callgsubr
          endchar
        </CharString>
        <CharString name="caroncmb.short">
          1025 -71 callsubr
          endchar
        </CharString>
        <CharString name="carondotaccentcmb">
          633 1694 -48 callgsubr
          127 -416 -59 callgsubr
          endchar
        </CharString>
        <CharString name="carondotaccentcmb.short">
          633 1892 136 callgsubr
          117 -313 rmoveto
          278 254 rlineto
          -230 hlineto
          -157 -146 rlineto
          -16 hlineto
          -157 146 rlineto
          -230 hlineto
          278 -254 rlineto
          endchar
        </CharString>
        <CharString name="ccaron">
          766 1296 rmoveto
          270 350 rlineto
          -233 -44 callsubr
          600 -11 callsubr
        </CharString>
        <CharString name="ccedilla">
          -40 callgsubr
        </CharString>
        <CharString name="ccedillaacute">
          1016 51 callgsubr
          -344 -705 -31 callgsubr
          -294 144 -177 258 -32 vhcurveto
          -50 -116 rlineto
          -104 59 vlineto
          94 38 58 callsubr
          228 21 142 135 23 224 rlinecurve
          -228 hlineto
          -121 -20 -85 -66 -128 hhcurveto
          -164 -90 118 215 hvcurveto
          endchar
        </CharString>
        <CharString name="ccircumflex">
          1113 730 -87 callsubr
          -371 897 rmoveto
          -270 -351 rlineto
          233 22 callsubr
          16 106 callsubr
          234 126 callgsubr
          endchar
        </CharString>
        <CharString name="cdotaccent">
          1113 730 -87 callsubr
          -244 564 -21 callgsubr
        </CharString>
        <CharString name="cedi">
          592 191 rmoveto
          -198 36 -113 197 298 vvcurveto
          297 113 198 198 35 vhcurveto
          408 -784 rmoveto
          -26 -148 -99 -106 -149 -23 rrcurveto
          1060 vlineto
          145 -24 101 -114 27 -156 rrcurveto
          235 hlineto
          -22 278 -201 211 -285 28 rrcurveto
          117 -134 -117 vlineto
          -352 -31 -205 -280 -441 vvcurveto
          -441 205 -280 352 -32 vhcurveto
          -136 134 136 vlineto
          291 25 194 198 24 276 rrcurveto
          endchar
        </CharString>
        <CharString name="cedilla">
          471 -237 rmoveto
          59 hlineto
          93 -55 callsubr
          49 118 rlineto
          -156 hlineto
          -56 -133 rlineto
          endchar
        </CharString>
        <CharString name="cedillacmb">
          509 -237 rmoveto
          58 hlineto
          46 callgsubr
          -155 hlineto
          -56 -133 rlineto
          endchar
        </CharString>
        <CharString name="cent">
          868 498 rmoveto
          -75 -9 -69 -72 -135 hhcurveto
          -154 -85 105 175 hvcurveto
          161 vlineto
          170 90 102 149 126 74 -73 -87 8 vhcurveto
          226 hlineto
          -6 189 -122 141 -207 34 rrcurveto
          180 -212 -183 vlineto
          -206 -39 -158 -154 -276 vvcurveto
          -170 vlineto
          -291 146 -153 218 -35 vhcurveto
          -182 212 183 vlineto
          192 34 146 124 3 192 rrcurveto
          endchar
        </CharString>
        <CharString name="checyrillic">
          1078 1095 rmoveto
          -233 -424 hlineto
          -49 callsubr
          233 hlineto
          endchar
        </CharString>
        <CharString name="chigreek">
          116 -367 rmoveto
          239 hlineto
          269 510 rlineto
          15 hlineto
          178 -346 rlineto
          -125 62 61 -49 131 hhcurveto
          42 49 6 10 28 hvcurveto
          181 vlineto
          -5 -19 -18 -3 -18 hhcurveto
          -63 -36 32 89 -47 hvcurveto
          -223 426 414 736 rlineto
          -239 hlineto
          -274 -517 rlineto
          -15 hlineto
          -174 340 rlineto
          139 -70 -58 52 -139 hhcurveto
          -38 -43 -5 -10 -31 hvcurveto
          -181 vlineto
          5 19 22 2 15 hhcurveto
          65 30 -32 -89 47 hvcurveto
          228 -435 rlineto
          endchar
        </CharString>
        <CharString name="circumflex">
          506 1627 -98 callgsubr
          endchar
        </CharString>
        <CharString name="circumflexacutecmb">
          844 1650 rmoveto
          197 189 callgsubr
          -231 hlineto
          -538 -347 -98 callgsubr
          endchar
        </CharString>
        <CharString name="circumflexacutecmb.short">
          854 1863 rmoveto
          205 hlineto
          220 267 rlineto
          -229 hlineto
          -300 -301 -56 callgsubr
          endchar
        </CharString>
        <CharString name="circumflexbelowcmb">
          506 -162 -98 callgsubr
          endchar
        </CharString>
        <CharString name="circumflexcmb">
          506 1627 -98 callgsubr
          endchar
        </CharString>
        <CharString name="circumflexcmb.short">
          742 1930 -50 callsubr
          endchar
        </CharString>
        <CharString name="circumflexgravecmb">
          1129 1650 rmoveto
          -200 324 rlineto
          -231 hlineto
          234 -324 rlineto
          -426 -23 -98 callgsubr
          endchar
        </CharString>
        <CharString name="circumflexgravecmb.short">
          1118 1863 101 callsubr
          -163 -34 -56 callgsubr
          endchar
        </CharString>
        <CharString name="circumflexhookabovecmb">
          506 1627 -98 callgsubr
          12 220 rmoveto
          14 30 41 9 40 -20 callgsubr
        </CharString>
        <CharString name="circumflexhookabovecmb.short">
          769 2012 1 callgsubr
        </CharString>
        <CharString name="circumflextildecmb">
          495 1856 -12 callsubr
        </CharString>
        <CharString name="circumflextildecmb.short">
          750 1829 -8 callgsubr
        </CharString>
        <CharString name="colon">
          204 callsubr
          115 -92 93 -112 -112 -92 -93 -115 -114 92 -95 112 hvcurveto
          762 vmoveto
          112 92 94 115 115 -92 93 -112 -112 -92 -93 -115 -115 92 -94 112 hvcurveto
          endchar
        </CharString>
        <CharString name="coloncurrency">
          827 1252 rmoveto
          2 15 16 0 16 hhcurveto
          50 49 -2 -5 41 hvcurveto
          -325 -1035 -62 17 -55 27 -47 34 rlinecurve
          -104 101 rmoveto
          -62 85 -33 110 136 vvcurveto
          266 138 179 221 60 vhcurveto
          25 -1394 rmoveto
          49 151 rlineto
          -7 37 39 -4 41 hhcurveto
          102 103 12 16 76 hvcurveto
          215 vlineto
          -15 -56 -94 -12 -100 hhcurveto
          -31 -30 2 5 -27 hvcurveto
          432 1395 rlineto
          -135 hlineto
          -43 -138 -51 8 -55 6 -62 1 rlinecurve
          -18 hlineto
          39 123 rlineto
          -135 hlineto
          -40 -128 rlineto
          -413 -42 -253 -270 -429 vvcurveto
          -264 94 -199 169 -124 vhcurveto
          -97 -302 rlineto
          135 hlineto
          76 236 51 -28 56 -23 61 -16 rlinecurve
          -55 -169 rlineto
          endchar
        </CharString>
        <CharString name="comma">
          606 -335 rmoveto
          186 737 rlineto
          -284 hlineto
          -132 -737 rlineto
          endchar
        </CharString>
        <CharString name="commaaccent">
          662 -494 rmoveto
          150 357 rlineto
          -235 hlineto
          -123 -357 rlineto
          endchar
        </CharString>
        <CharString name="commabelowcmb">
          658 -513 rmoveto
          151 -35 callgsubr
        </CharString>
        <CharString name="copyright">
          885 806 rmoveto
          126 -16 -91 79 -133 hhcurveto
          -169 -97 -105 -184 -184 97 -105 169 133 92 79 121 15 hvcurveto
          -135 hlineto
          -51 -11 -39 -30 -58 hhcurveto
          -82 -46 63 107 107 46 63 82 58 37 -32 -54 13 hvcurveto
          -117 -633 rmoveto
          303 239 239 310 310 -239 239 -303 -303 -239 -239 -310 -310 239 -239 303 hvcurveto
          98 vmoveto
          -245 -191 199 252 252 191 199 245 245 191 -199 -252 -252 -191 -199 -245 hvcurveto
          endchar
        </CharString>
        <CharString name="cruzeiro">
          1147 216 rmoveto
          -43 -12 -65 -9 -68 -2 rrcurveto
          -2 -23 -27 -2 -28 hhcurveto
          275 vlineto
          153 82 98 133 35 44 -7 -7 18 vhcurveto
          193 vlineto
          7 -22 -27 4 -30 hhcurveto
          -117 -83 -79 -111 -25 hvcurveto
          -14 174 -192 -680 hlineto
          -237 53 -142 178 282 vvcurveto
          334 215 198 333 102 110 -13 -13 59 vhcurveto
          209 vlineto
          19 -67 -108 13 -100 hhcurveto
          -483 -302 -277 -470 -479 296 -270 494 103 103 12 16 76 hvcurveto
          endchar
        </CharString>
        <CharString name="currency">
          1152 1030 rmoveto
          -140 151 -153 -163 rlineto
          42 -63 -76 22 -80 hhcurveto
          -78 -75 -22 -42 -65 hvcurveto
          -153 163 -142 -151 154 -157 rlineto
          -42 -64 -21 -75 -83 vvcurveto
          -84 20 -74 43 -65 vhcurveto
          -154 -157 142 -150 153 163 rlineto
          -42 65 75 -21 78 hhcurveto
          80 75 21 42 63 hvcurveto
          154 -163 140 150 -151 157 rlineto
          42 65 22 74 84 vvcurveto
          84 -22 74 -41 64 vhcurveto
          -361 -461 rmoveto
          -136 -100 103 136 137 100 103 136 135 100 -103 -137 -136 -100 -103 -135 hvcurveto
          endchar
        </CharString>
        <CharString name="d">
          362 636 -93 callgsubr
        </CharString>
        <CharString name="dagger">
          726 752 rmoveto
          387 -3 rlineto
          195 vlineto
          -387 -2 4 412 rlineto
          -194 hlineto
          4 -412 -387 2 rlineto
          -195 vlineto
          387 3 -4 -922 rlineto
          194 hlineto
          endchar
        </CharString>
        <CharString name="daggerdbl">
          1113 240 rmoveto
          194 vlineto
          -386 -2 rlineto
          320 vlineto
          386 -3 rlineto
          195 vlineto
          -385 -2 2 412 rlineto
          -194 hlineto
          2 -412 -385 2 rlineto
          -195 vlineto
          386 3 rlineto
          -320 vlineto
          -386 2 rlineto
          -194 vlineto
          385 1 -2 -411 rlineto
          194 hlineto
          -2 411 rlineto
          endchar
        </CharString>
        <CharString name="darkshade">
          1054 1354 rmoveto
          -106 -105 106 vlineto
          -105 184 callgsubr
          -105 184 callgsubr
          -106 hmoveto
          -106 -104 106 vlineto
          -106 hmoveto
          -106 -105 106 vlineto
          843 -317 rmoveto
          -105 106 105 hlineto
          -632 190 callgsubr
          843 190 callgsubr
          -633 190 callgsubr
          211 -106 rmoveto
          -105 106 105 hlineto
          -105 -212 rmoveto
          -104 -106 104 vlineto
          527 hmoveto
          -104 -105 104 vlineto
          -105 hmoveto
          -104 -106 104 vlineto
          -317 hmoveto
          -104 -104 104 vlineto
          -106 hmoveto
          -104 -105 104 vlineto
          843 -210 rmoveto
          -106 -105 106 vlineto
          -317 184 callgsubr
          739 184 callgsubr
          -316 hmoveto
          -106 -105 106 vlineto
          -316 190 callgsubr
          737 -211 rmoveto
          -106 -105 106 vlineto
          -632 -106 rmoveto
          106 104 -106 vlineto
          -210 106 rmoveto
          -106 -105 106 vlineto
          738 184 callgsubr
          -105 184 callgsubr
          317 -316 rmoveto
          105 105 -105 vlineto
          -738 hmoveto
          105 106 -105 vlineto
          316 hmoveto
          105 105 -105 vlineto
          316 hmoveto
          105 106 -105 vlineto
          -739 hmoveto
          105 106 -105 vlineto
          317 -106 rmoveto
          -105 -106 189 callsubr
          -105 105 vlineto
          315 hmoveto
          -105 -104 105 vlineto
          737 hmoveto
          -105 -105 105 vlineto
          -316 hmoveto
          -105 -106 105 vlineto
          106 -316 rmoveto
          105 105 -105 vlineto
          316 hmoveto
          105 106 -105 vlineto
          -949 hmoveto
          105 106 -105 vlineto
          104 hmoveto
          105 106 -105 vlineto
          317 hmoveto
          105 105 -105 vlineto
          -738 -211 rmoveto
          106 106 104 -106 106 106 106 -106 105 106 106 -106 105 106 105 -106 106 106 106 316 -106 105 106 316 -106 106 106 317 -106 104 106 317 -106 106 106 210 -106 -106 -106 106 -105 -106 -105 106 -106 -106 -105 hlineto
          106 -106 -106 -106 106 -104 -106 -106 106 -105 -106 -106 -315 106 -106 -106 -316 106 -106 -106 -316 106 -105 -106 -317 106 -105 -106 -211 106 106 105 vlineto
          endchar
        </CharString>
        <CharString name="dbldnhorzbxd">
          -184 654 rmoveto
          73 callsubr
          1634 -566 73 callgsubr
          -367 -1117 rmoveto
          71 callsubr
        </CharString>
        <CharString name="dbldnleftbxd">
          908 -840 rmoveto
          1683 -1092 -189 909 -1494 vlineto
          -184 hmoveto
          71 callsubr
        </CharString>
        <CharString name="dbldnrightbxd">
          1450 654 rmoveto
          189 -1092 -1683 183 1494 vlineto
          909 -377 73 callgsubr
          endchar
        </CharString>
        <CharString name="dblgrave">
          847 13 callsubr
          endchar
        </CharString>
        <CharString name="dblgravecmb">
          847 13 callsubr
          endchar
        </CharString>
        <CharString name="dblgravecmb.short">
          825 9 callgsubr
          290 -312 rlineto
          207 hlineto
          endchar
        </CharString>
        <CharString name="dblhorzbxd">
          -184 654 rmoveto
          73 callsubr
          -566 vmoveto
          73 callsubr
          endchar
        </CharString>
        <CharString name="dbluphorzbxd">
          725 654 rmoveto
          725 189 -542 1117 50 callgsubr
          -377 vmoveto
          73 callsubr
          endchar
        </CharString>
        <CharString name="dblupleftbxd">
          541 654 rmoveto
          1306 -183 -1117 -542 -189 vlineto
          1092 -377 rmoveto
          1683 -183 -1494 -909 -189 vlineto
          endchar
        </CharString>
        <CharString name="dbluprightbxd">
          725 654 186 callgsubr
          -367 -1683 rmoveto
          1092 189 -909 1494 -183 hlineto
          endchar
        </CharString>
        <CharString name="dblvertbxd">
          176 callgsubr
          -367 -2800 96 callsubr
          endchar
        </CharString>
        <CharString name="dblverthorzbxd">
          725 654 rmoveto
          725 189 -542 1117 50 callgsubr
          1634 -377 73 callgsubr
          -367 -1117 rmoveto
          71 callsubr
        </CharString>
        <CharString name="dblvertleftbxd">
          725 -840 rmoveto
          183 2800 50 callgsubr
          725 -1494 rmoveto
          71 callsubr
        </CharString>
        <CharString name="dblvertrightbxd">
          358 93 callgsubr
          367 -1306 186 callgsubr
          725 -1683 73 callgsubr
          endchar
        </CharString>
        <CharString name="dcaron">
          281 631 rmoveto
          190 74 95 145 145 74 -95 -190 vhcurveto
          -161 vlineto
          -189 -74 -95 -145 -145 -74 95 189 vhcurveto
          459 -290 rmoveto
          -180 200 1518 -204 -602 -20 vlineto
          132 -42 -98 66 -143 hhcurveto
          -239 -123 -159 -309 hvcurveto
          -195 vlineto
          -310 123 -158 239 143 96 64 133 48 vhcurveto
          335 1338 rmoveto
          -477 152 vlineto
          35 477 rlineto
          endchar
        </CharString>
        <CharString name="dcircumflexbelow">
          506 -162 -98 callgsubr
          -398 798 -93 callgsubr
        </CharString>
        <CharString name="dcommaaccent">
          658 -513 rmoveto
          151 357 rlineto
          -236 hlineto
          -123 -357 rlineto
          -88 1149 -93 callgsubr
        </CharString>
        <CharString name="dcroat">
          866 465 rmoveto
          -172 -98 -107 -156 -156 -98 107 172 vhcurveto
          171 vlineto
          172 98 108 156 156 98 -107 -173 vhcurveto
          378 757 rmoveto
          -143 125 -241 -125 -187 -131 187 -346 -20 hlineto
          127 -41 -112 71 -158 hhcurveto
          -252 -155 -177 -291 hvcurveto
          -195 vlineto
          -292 155 -176 252 159 111 69 128 45 vhcurveto
          20 -180 237 1262 143 hlineto
          endchar
        </CharString>
        <CharString name="ddotaccent">
          498 1289 rmoveto
          79 66 67 82 81 -66 -86 callgsubr
          -136 -653 -93 callgsubr
        </CharString>
        <CharString name="ddotbelow">
          46 callsubr
          -271 1102 -93 callgsubr
        </CharString>
        <CharString name="decyrillic">
          -3 callsubr
        </CharString>
        <CharString name="degree">
          634 815 rmoveto
          194 144 146 195 195 -144 146 -194 -195 -144 -146 -195 -195 144 -146 195 hvcurveto
          153 vmoveto
          -107 -77 79 109 109 77 79 107 106 78 -79 -109 -109 -78 -79 -106 hvcurveto
          endchar
        </CharString>
        <CharString name="deltagreek">
          1145 524 rmoveto
          262 -132 143 -308 154 vhcurveto
          -138 65 -39 39 59 vvcurveto
          71 71 37 107 114 117 -33 -53 107 vhcurveto
          195 vlineto
          49 -93 -124 28 -149 hhcurveto
          -241 -139 -116 -159 -113 60 -80 147 -73 hvcurveto
          -18 vlineto
          -241 -31 -146 -188 -244 vvcurveto
          -36 vlineto
          -317 190 -187 325 316 196 196 314 vhcurveto
          -509 356 rmoveto
          169 112 -125 -191 hvcurveto
          -39 vlineto
          -200 -102 -118 -178 -182 -106 110 202 vhcurveto
          45 vlineto
          200 113 116 174 vhcurveto
          endchar
        </CharString>
        <CharString name="dieresis">
          414 1308 -97 callsubr
          endchar
        </CharString>
        <CharString name="dieresisacutecmb">
          512 1654 rmoveto
          204 hlineto
          248 324 rlineto
          -237 hlineto
          -313 -690 -97 callsubr
          endchar
        </CharString>
        <CharString name="dieresisacutecmb.short">
          504 1896 rmoveto
          206 hlineto
          216 234 rlineto
          -240 hlineto
          -267 -566 -25 callsubr
          endchar
        </CharString>
        <CharString name="dieresisbelowcmb">
          414 -456 -97 callsubr
          endchar
        </CharString>
        <CharString name="dieresiscaroncmb">
          746 1654 rmoveto
          271 332 rlineto
          -211 hlineto
          -165 -213 rlineto
          -16 hlineto
          -165 213 rlineto
          -211 hlineto
          271 -332 rlineto
          -106 -366 -97 callsubr
          endchar
        </CharString>
        <CharString name="dieresiscaroncmb.short">
          743 1881 rmoveto
          278 276 rlineto
          -223 hlineto
          -157 -162 rlineto
          -16 hlineto
          -157 162 rlineto
          -223 hlineto
          278 -276 rlineto
          -104 -317 -25 callsubr
          endchar
        </CharString>
        <CharString name="dieresiscmb">
          414 1292 -97 callsubr
          endchar
        </CharString>
        <CharString name="dieresiscmb.short">
          414 1633 -90 callsubr
        </CharString>
        <CharString name="dieresisgravecmb">
          414 1288 -97 callsubr
          -313 690 rmoveto
          -237 hlineto
          248 -324 rlineto
          204 hlineto
          endchar
        </CharString>
        <CharString name="dieresisgravecmb.short">
          420 1564 -25 callsubr
          -267 566 rmoveto
          -240 hlineto
          216 -234 rlineto
          206 hlineto
          endchar
        </CharString>
        <CharString name="dieresismacroncmb">
          19 callsubr
          endchar
        </CharString>
        <CharString name="dieresismacroncmb.short">
          849 1828 25 callsubr
          endchar
        </CharString>
        <CharString name="dieresistonosgreek">
          501 1282 -23 callsubr
        </CharString>
        <CharString name="divide">
          1149 541 rmoveto
          200 -1032 -200 vlineto
          516 331 rmoveto
          88 61 62 88 87 -61 62 -88 -86 -62 -62 -87 -88 62 -62 86 hvcurveto
          -760 vmoveto
          88 61 61 87 88 -61 62 -88 -86 -62 -62 -88 -87 62 -61 86 hvcurveto
          endchar
        </CharString>
        <CharString name="djecyrillic">
          384 906 rmoveto
          357 256 131 -256 124 -226 -124 -142 -131 142 -1263 232 39 callsubr
          -694 vlineto
          -103 -44 -41 -112 -6 -24 0 1 -4 vhcurveto
          -184 vlineto
          -1 9 40 -2 14 hhcurveto
          240 120 109 215 hvcurveto
          757 vlineto
          263 -130 144 -239 -162 -124 -76 -133 -55 vhcurveto
          endchar
        </CharString>
        <CharString name="dlinebelow">
          981 -407 -70 callsubr
          77 1043 -93 callgsubr
        </CharString>
        <CharString name="dndblhorzsngbxd">
          101 callgsubr
          -1634 83 callgsubr
        </CharString>
        <CharString name="dndblleftsngbxd">
          163 callgsubr
          1494 -1092 83 callgsubr
        </CharString>
        <CharString name="dndblrightsngbxd">
          101 callgsubr
          -1092 -1494 183 1306 184 hlineto
          endchar
        </CharString>
        <CharString name="dneighthblock">
          107 callsubr
          256 121 callsubr
        </CharString>
        <CharString name="dnfiveeighthsblock">
          107 callsubr
          1280 121 callsubr
        </CharString>
        <CharString name="dnhalfblock">
          107 callsubr
          1024 121 callsubr
        </CharString>
        <CharString name="dnheavyhorzlightbxd">
          -2 callsubr
          -1634 208 callsubr
          -1306 330 56 callgsubr
        </CharString>
        <CharString name="dnheavyleftlightbxd">
          151 callsubr
          1494 -982 155 callsubr
        </CharString>
        <CharString name="dnheavyleftuplightbxd">
          145 callsubr
          -725 155 callsubr
        </CharString>
        <CharString name="dnheavyrightlightbxd">
          -2 callsubr
          -982 -1494 330 56 callgsubr
        </CharString>
        <CharString name="dnheavyrightuplightbxd">
          -17 callgsubr
          -1306 -73 -1494 330 56 callgsubr
        </CharString>
        <CharString name="dnheavyuphorzlightbxd">
          -17 callgsubr
          -1306 -725 208 callsubr
          -1306 330 56 callgsubr
        </CharString>
        <CharString name="dnleftquadrant">
          -464 vmoveto
          106 callgsubr
        </CharString>
        <CharString name="dnlighthorzheavybxd">
          -41 callgsubr
          -1634 60 callsubr
        </CharString>
        <CharString name="dnlightleftheavybxd">
          115 callgsubr
          1570 -909 155 callgsubr
        </CharString>
        <CharString name="dnlightleftupheavybxd">
          798 390 rmoveto
          1570 118 callgsubr
        </CharString>
        <CharString name="dnlightrightheavybxd">
          -41 callgsubr
          -909 -1570 184 45 callsubr
        </CharString>
        <CharString name="dnlightrightupheavybxd">
          -41 callgsubr
          -652 1230 -330 -1570 73 -1230 184 45 callsubr
        </CharString>
        <CharString name="dnlightuphorzheavybxd">
          -41 callgsubr
          -652 1230 118 callgsubr
        </CharString>
        <CharString name="dnquarterblock">
          107 callsubr
          512 121 callsubr
        </CharString>
        <CharString name="dnrightquadrant">
          633 -464 rmoveto
          106 callgsubr
        </CharString>
        <CharString name="dnseveneighthsblock">
          107 callsubr
          1792 121 callsubr
        </CharString>
        <CharString name="dnsnghorzdblbxd">
          -184 654 rmoveto
          73 callsubr
          1634 -566 rmoveto
          182 callgsubr
          -189 725 -1117 181 callsubr
        </CharString>
        <CharString name="dnsngleftdblbxd">
          115 callgsubr
          1683 -909 -189 725 -188 190 callsubr
          -1117 vlineto
          endchar
        </CharString>
        <CharString name="dnsngrightdblbxd">
          87 callgsubr
          -909 -1683 181 callsubr
        </CharString>
        <CharString name="dnthreeeighthsblock">
          107 callsubr
          768 121 callsubr
        </CharString>
        <CharString name="dnthreequartersblock">
          107 callsubr
          1536 121 callsubr
        </CharString>
        <CharString name="dollar">
          709 612 rmoveto
          176 -45 73 -67 -114 vvcurveto
          -123 -99 -90 -150 -19 vhcurveto
          -126 701 rmoveto
          -163 45 -66 62 108 vvcurveto
          119 87 82 142 18 vhcurveto
          126 -465 rmoveto
          464 vlineto
          130 -20 88 -82 15 -119 rrcurveto
          201 hlineto
          -10 226 -172 158 -252 23 rrcurveto
          110 -126 -109 vlineto
          -268 -21 -172 -161 -236 vvcurveto
          -213 125 -129 269 -63 vhcurveto
          46 -11 rlineto
          -487 vlineto
          -152 19 -103 88 -15 127 rrcurveto
          -205 hlineto
          13 -243 182 -158 280 -19 rrcurveto
          -109 126 110 vlineto
          283 22 177 165 249 vvcurveto
          219 -120 121 -288 67 vhcurveto
          endchar
        </CharString>
        <CharString name="dotaccent">
          633 122 callsubr
          endchar
        </CharString>
        <CharString name="dotaccentcmb">
          633 122 callsubr
          endchar
        </CharString>
        <CharString name="dotaccentcmb.short">
          633 1615 -48 callgsubr
          endchar
        </CharString>
        <CharString name="dotbelowcmb">
          46 callsubr
          endchar
        </CharString>
        <CharString name="dotlessi">
          1115 hmoveto
          -80 callsubr
          endchar
        </CharString>
        <CharString name="dotlessj">
          -38 callgsubr
          endchar
        </CharString>
        <CharString name="dotmacroncmb">
          981 1726 -70 callsubr
          348 -453 62 callgsubr
        </CharString>
        <CharString name="dotmacroncmb.short">
          65 callsubr
          endchar
        </CharString>
        <CharString name="dzecyrillic">
          207 785 rmoveto
          35 callsubr
          vhcurveto
          164 -36 rlineto
          -104 callsubr
          hvcurveto
          endchar
        </CharString>
        <CharString name="dzhecyrillic">
          1106 1095 rmoveto
          -233 -907 -480 907 -233 -1095 366 -285 214 285 366 hlineto
          endchar
        </CharString>
        <CharString name="e">
          -106 callsubr
          endchar
        </CharString>
        <CharString name="eacute">
          743 -89 callsubr
          380 -999 -99 callsubr
        </CharString>
        <CharString name="ebreve">
          -106 callsubr
          -473 1125 rmoveto
          24 callsubr
          -183 hlineto
          74 callgsubr
          endchar
        </CharString>
        <CharString name="ecaron">
          767 147 callsubr
          -17 hlineto
          -154 216 rlineto
          -234 hlineto
          270 -350 rlineto
          379 -999 -99 callsubr
        </CharString>
        <CharString name="ecedilla">
          394 647 -40 callsubr
        </CharString>
        <CharString name="ecedillabreve">
          835 1603 rmoveto
          74 callgsubr
          24 callsubr
          -624 -956 -40 callsubr
        </CharString>
        <CharString name="ecircumflex">
          -106 callsubr
          -600 1330 -98 callgsubr
          endchar
        </CharString>
        <CharString name="ecircumflexacute">
          -106 callsubr
          -261 1353 rmoveto
          197 hlineto
          233 324 rlineto
          -230 hlineto
          -538 -347 -89 callgsubr
          endchar
        </CharString>
        <CharString name="ecircumflexbelow">
          -106 callsubr
          -599 -459 -89 callgsubr
          endchar
        </CharString>
        <CharString name="ecircumflexdotbelow">
          -106 callsubr
          -599 1330 -89 callgsubr
          -127 -2093 -52 callgsubr
          endchar
        </CharString>
        <CharString name="ecircumflexgrave">
          -106 callsubr
          23 1353 rmoveto
          -200 324 rlineto
          -230 hlineto
          233 -324 rlineto
          -425 -23 -89 callgsubr
          endchar
        </CharString>
        <CharString name="ecircumflexhookabove">
          -106 callsubr
          -599 1330 -89 callgsubr
          13 220 163 callsubr
          64 42 -33 -48 -43 -42 -41 -61 134 callsubr
          -59 -56 -13 -15 -36 vhcurveto
          endchar
        </CharString>
        <CharString name="ecircumflextilde">
          -106 callsubr
          -610 1559 rmoveto
          86 43 -146 160 hhcurveto
          146 90 113 184 hvcurveto
          -163 hlineto
          -99 -1 -26 -42 -60 -86 -43 144 -160 hhcurveto
          -147 93 callsubr
          27 44 59 hhcurveto
          11 -229 -89 callgsubr
          endchar
        </CharString>
        <CharString name="ecyrillic">
          -14 callsubr
          endchar
        </CharString>
        <CharString name="edblgrave">
          750 13 callsubr
          345 -999 -99 callsubr
        </CharString>
        <CharString name="edieresis">
          -106 callsubr
          -692 1011 -6 callsubr
        </CharString>
        <CharString name="edotaccent">
          -106 callsubr
          -473 997 -52 callgsubr
          endchar
        </CharString>
        <CharString name="edotbelow">
          -106 callsubr
          -473 -763 -52 callgsubr
          endchar
        </CharString>
        <CharString name="efcyrillic">
          526 -363 rmoveto
          215 347 hlineto
          324 19 173 194 350 vvcurveto
          347 -175 198 -322 18 vhcurveto
          348 -215 -348 vlineto
          -322 -18 -175 -198 -347 vvcurveto
          -350 173 -194 324 -19 vhcurveto
          -285 563 rmoveto
          242 102 138 187 6 vhcurveto
          -772 vlineto
          -187 7 -102 137 242 vvcurveto
          496 386 rmoveto
          187 -6 102 -138 -242 vvcurveto
          -242 -102 -137 -187 -7 vhcurveto
          endchar
        </CharString>
        <CharString name="egrave">
          -106 callsubr
          -328 999 -33 callgsubr
          endchar
        </CharString>
        <CharString name="ehookabove">
          -106 callsubr
          -651 1208 rmoveto
          14 30 42 9 39 -20 callgsubr
        </CharString>
        <CharString name="eight">
          636 844 rmoveto
          -150 -99 89 132 131 99 89 150 149 100 -89 -131 -132 -100 -89 -149 hvcurveto
          -684 vmoveto
          -176 -121 102 147 148 121 101 176 176 121 -101 -148 -147 -121 -102 -176 hvcurveto
          -191 vmoveto
          324 221 170 249 179 -122 147 -184 40 hvcurveto
          17 vlineto
          153 39 95 122 154 vvcurveto
          227 -202 161 -285 -285 -202 -161 -227 -154 96 -123 151 -38 vhcurveto
          -17 vlineto
          -186 -44 -119 -144 -178 vvcurveto
          -249 221 -170 324 vhcurveto
          endchar
        </CharString>
        <CharString name="einvertedbreve">
          1018 164 callsubr
          -145 141 -232 -231 -145 -141 -203 vhcurveto
          183 hlineto
          109 1 71 77 121 hhcurveto
          123 70 -77 -109 1 hvcurveto
          58 -962 -99 callsubr
        </CharString>
        <CharString name="elcyrillic">
          862 903 rmoveto
          -903 228 1095 -781 vlineto
          30 callsubr
          endchar
        </CharString>
        <CharString name="ellipsis">
          224 -15 rmoveto
          86 45 62 119 119 -45 62 -86 -86 -44 -62 -119 -119 44 -62 86 hvcurveto
          409 hmoveto
          86 44 62 119 119 -44 62 -86 -86 -44 -62 -119 -119 44 -62 86 hvcurveto
          409 hmoveto
          86 44 62 119 119 -44 62 -86 -86 -45 -62 -119 -119 45 -62 86 hvcurveto
          endchar
        </CharString>
        <CharString name="emacron">
          -106 callsubr
          -125 1065 11 callsubr
          endchar
        </CharString>
        <CharString name="emacronacute">
          989 1359 137 callsubr
          431 310 rmoveto
          245 306 rlineto
          -234 hlineto
          -211 -306 rlineto
          368 -1372 -99 callsubr
        </CharString>
        <CharString name="emacrongrave">
          -106 callsubr
          -356 1372 rmoveto
          -212 306 rlineto
          -233 hlineto
          244 -306 rlineto
          432 -310 49 callsubr
        </CharString>
        <CharString name="emcyrillic">
          281 786 rmoveto
          15 hlineto
          268 -738 rlineto
          138 hlineto
          266 728 rlineto
          15 hlineto
          -9 -776 rlineto
          186 1095 -245 hlineto
          -274 -774 rlineto
          -14 hlineto
          -274 774 rlineto
          -247 -1095 184 hlineto
          endchar
        </CharString>
        <CharString name="emdash">
          91 callgsubr
        </CharString>
        <CharString name="encyrillic">
          89 callgsubr
        </CharString>
        <CharString name="endash">
          91 callgsubr
        </CharString>
        <CharString name="eogonek">
          850 -448 rmoveto
          47 42 7 12 33 hvcurveto
          142 vlineto
          -5 -13 -26 -3 -30 hhcurveto
          -75 -47 41 65 65 44 61 125 104 hvcurveto
          95 83 57 89 12 84 rrcurveto
          130 callgsubr
          722 133 vlineto
          304 -179 189 -288 -291 -193 -190 -287 vhcurveto
          -171 vlineto
          -310 174 -181 294 35 38 5 7 22 vhcurveto
          -16 vlineto
          -84 -50 -50 -79 -81 vvcurveto
          -124 106 -88 150 vhcurveto
          -205 1381 rmoveto
          153 92 -108 -178 hvcurveto
          -496 hlineto
          179 94 107 157 vhcurveto
          endchar
        </CharString>
        <CharString name="epsilongreek">
          610 -22 rmoveto
          292 220 156 220 147 callgsubr
          103 93 83 50 177 callsubr
          46 92 97 93 50 141 150 94 -47 -126 203 callgsubr
          118 -288 hhcurveto
          -328 -139 -143 -177 -115 55 -77 121 -42 hvcurveto
          -17 vlineto
          -130 -40 -68 -86 -127 vvcurveto
          -199 164 -118 300 vhcurveto
          endchar
        </CharString>
        <CharString name="epsilontonosgreek">
          610 -23 rmoveto
          292 220 156 221 147 callgsubr
          102 94 83 49 177 callsubr
          47 92 96 93 50 141 150 94 -47 -125 203 callgsubr
          117 -288 hhcurveto
          -328 -139 -142 -178 -114 55 -78 121 -42 hvcurveto
          -16 vlineto
          -130 -40 -68 -86 -127 vvcurveto
          -200 164 -118 300 vhcurveto
          -67 1305 104 callsubr
        </CharString>
        <CharString name="equal">
          1162 282 rmoveto
          229 -1058 -229 vlineto
          1058 488 rmoveto
          229 -1058 -229 vlineto
          endchar
        </CharString>
        <CharString name="ercyrillic">
          732 1113 rmoveto
          -159 143 callgsubr
          hvcurveto
          -20 180 -236 -1462 241 546 19 hlineto
          -126 41 112 -72 159 hhcurveto
          252 155 105 callsubr
          -155 177 -252 vhcurveto
          -84 -204 rmoveto
          157 97 -107 -172 hvcurveto
          -172 vlineto
          -171 -97 -108 -157 -156 -97 107 172 112 callsubr
          156 vhcurveto
          endchar
        </CharString>
        <CharString name="ereversedcyrillic">
          353 737 -88 callgsubr
        </CharString>
        <CharString name="escyrillic">
          1113 730 -9 callgsubr
        </CharString>
        <CharString name="etagreek">
          455 hmoveto
          -9 callsubr
        </CharString>
        <CharString name="etatonosgreek">
          449 1282 53 callsubr
          -262 hlineto
          -75 -1645 rmoveto
          -9 callsubr
        </CharString>
        <CharString name="eth">
          847 481 rmoveto
          -199 -89 -115 -156 -156 -89 115 199 vhcurveto
          64 vlineto
          198 88 112 157 157 88 -112 -198 vhcurveto
          230 827 rmoveto
          149 vlineto
          -318 -117 -46 48 -51 43 -54 39 rlinecurve
          -312 hlineto
          99 -64 86 -69 73 -72 -211 -78 rcurveline
          -149 vlineto
          312 115 77 -98 55 -103 31 -106 rlinecurve
          -13 hlineto
          84 -63 -84 39 -121 hhcurveto
          -261 -163 -191 -311 hvcurveto
          -41 vlineto
          -323 178 -186 310 311 177 189 330 vhcurveto
          109 vlineto
          242 -85 243 -148 197 vhcurveto
          endchar
        </CharString>
        <CharString name="etilde">
          -106 callsubr
          -608 1117 -22 callgsubr
          -151 hhcurveto
          -148 105 callgsubr
          28 50 56 vhcurveto
          endchar
        </CharString>
        <CharString name="etildebelow">
          -106 callsubr
          -598 -617 rmoveto
          82 45 24 callgsubr
          -148 -96 -121 -190 hvcurveto
          167 hlineto
          98 28 49 56 vhcurveto
          endchar
        </CharString>
        <CharString name="exclam">
          498 81 callsubr
          22 -994 rlineto
          226 hlineto
          23 994 rlineto
          -136 -1469 rmoveto
          91 72 71 90 90 -72 70 -91 194 callsubr
        </CharString>
        <CharString name="exclamdown">
          633 1119 133 callgsubr
          136 -1469 rmoveto
          -23 994 132 callsubr
          -22 -994 rlineto
          endchar
        </CharString>
        <CharString name="f">
          23 callsubr
          endchar
        </CharString>
        <CharString name="fdotaccent">
          23 callsubr
          -257 389 -52 callgsubr
          endchar
        </CharString>
        <CharString name="fi">
          486 hmoveto
          900 433 -900 241 1088 -674 105 vlineto
          94 64 45 119 36 52 -3 -3 34 vhcurveto
          175 vlineto
          4 -24 -59 3 -39 hhcurveto
          -300 -124 -95 -235 hvcurveto
          -90 -230 -188 230 -900 vlineto
          794 1235 rmoveto
          100 70 66 93 94 -70 65 -100 -99 -70 -65 -94 -93 70 -66 99 hvcurveto
          endchar
        </CharString>
        <CharString name="figuredash">
          91 callgsubr
        </CharString>
        <CharString name="five">
          623 -29 rmoveto
          310 208 202 302 282 -185 196 -267 -132 -107 -48 -88 -65 hvcurveto
          -17 hlineto
          35 420 rlineto
          653 206 -845 hlineto
          -70 -826 rlineto
          232 hlineto
          94 54 90 49 114 hhcurveto
          166 113 -117 -174 -173 -112 -116 -167 -148 -112 89 130 -16 hvcurveto
          -234 hlineto
          -255 11 203 -173 288 hhcurveto
          endchar
        </CharString>
        <CharString name="fl">
          452 900 rmoveto
          309 188 -313 71 hlineto
          129 53 48 154 vhcurveto
          273 -1336 232 1510 -519 hlineto
          -303 -119 -99 -253 hvcurveto
          -70 -219 -188 219 -900 233 vlineto
          endchar
        </CharString>
        <CharString name="florin">
          267 -24 rmoveto
          254 144 116 271 39 hvcurveto
          47 318 rlineto
          376 191 -348 hlineto
          26 176 rlineto
          135 21 73 66 140 hhcurveto
          61 63 -6 -13 47 hvcurveto
          214 vlineto
          13 -55 -64 5 -81 hhcurveto
          -260 -154 -133 -255 -38 hvcurveto
          -29 -202 rlineto
          -344 -191 316 hlineto
          -46 -304 rlineto
          -130 -19 -78 -57 -119 hhcurveto
          -61 -63 11 19 -58 hvcurveto
          -220 vlineto
          -16 66 62 -8 82 hhcurveto
          endchar
        </CharString>
        <CharString name="four">
          769 hmoveto
          224 286 204 198 -206 386 -216 -384 -400 16 hlineto
          448 941 rlineto
          -245 hlineto
          -459 -964 rlineto
          -193 650 vlineto
          endchar
        </CharString>
        <CharString name="fraction">
          1266 1443 4 callgsubr
        </CharString>
        <CharString name="franc">
          891 361 rmoveto
          -354 256 533 202 -533 413 587 211 -828 -1082 -155 -160 155 -201 241 201 354 hlineto
          endchar
        </CharString>
        <CharString name="fullblock">
          107 callsubr
          2048 121 callsubr
        </CharString>
        <CharString name="g">
          -102 callgsubr
          endchar
        </CharString>
        <CharString name="gacute">
          709 -89 callsubr
          623 -36 callsubr
        </CharString>
        <CharString name="gammagreek">
          465 -354 rmoveto
          229 324 hlineto
          290 383 112 279 264 vvcurveto
          66 -8 78 -14 55 vhcurveto
          -229 hlineto
          14 -60 8 -56 -84 vvcurveto
          -225 -71 -185 -182 -262 vhcurveto
          -16 hlineto
          -259 872 rlineto
          -250 hlineto
          376 -1144 rlineto
          endchar
        </CharString>
        <CharString name="gbreve">
          -102 callgsubr
          5 1834 rmoveto
          24 callsubr
          -183 hlineto
          74 callgsubr
          endchar
        </CharString>
        <CharString name="gcaron">
          734 147 callsubr
          -17 hlineto
          -155 216 rlineto
          -233 hlineto
          270 -350 rlineto
          621 -36 callsubr
        </CharString>
        <CharString name="gcircumflex">
          -102 callgsubr
          -121 2039 rmoveto
          -271 -351 rlineto
          234 22 callsubr
          16 106 callsubr
          234 126 callgsubr
          endchar
        </CharString>
        <CharString name="gcommaaccent">
          -102 callgsubr
          34 2065 rmoveto
          -150 -357 rlineto
          236 hlineto
          123 357 rlineto
          endchar
        </CharString>
        <CharString name="gdotaccent">
          -102 callgsubr
          5 1706 -52 callgsubr
          endchar
        </CharString>
        <CharString name="gecyrillic">
          1140 1095 rmoveto
          -1006 6 callsubr
          hlineto
          endchar
        </CharString>
        <CharString name="germandbls">
          402 hmoveto
          1061 vlineto
          141 74 72 139 127 84 -80 -122 -135 -77 -81 -129 vhcurveto
          -38 -219 56 hlineto
          186 104 -81 -145 -143 -82 -73 -157 -50 -47 5 12 -36 hvcurveto
          -211 vlineto
          -10 46 57 -6 54 hhcurveto
          291 176 155 259 206 -123 132 -210 25 hvcurveto
          18 vlineto
          131 43 91 129 147 vvcurveto
          246 -166 142 -282 -290 -171 -150 -259 vhcurveto
          -1078 vlineto
          endchar
        </CharString>
        <CharString name="geupturncyrillic">
          939 1375 rmoveto
          -280 -805 6 callsubr
          663 vlineto
          endchar
        </CharString>
        <CharString name="gjecyrillic">
          1047 1643 rmoveto
          -264 hlineto
          -241 -347 174 callgsubr
          368 -201 rmoveto
          -1006 6 callsubr
          hlineto
          endchar
        </CharString>
        <CharString name="glyph1">
          endchar
        </CharString>
        <CharString name="gmacron">
          -102 callgsubr
          353 1774 37 callsubr
        </CharString>
        <CharString name="grave">
          885 1296 -33 callgsubr
          endchar
        </CharString>
        <CharString name="gravecmb">
          885 1296 -33 callgsubr
          endchar
        </CharString>
        <CharString name="gravecmb.short">
          631 -22 callsubr
          endchar
        </CharString>
        <CharString name="greater">
          839 651 rmoveto
          -19 vlineto
          -657 -331 rlineto
          -261 vlineto
          903 500 rlineto
          203 vlineto
          -903 500 rlineto
          -261 vlineto
          endchar
        </CharString>
        <CharString name="greaterequal">
          1136 63 rmoveto
          207 -1004 -207 vlineto
          547 vmoveto
          -223 vlineto
          1004 304 rlineto
          198 vlineto
          -1004 304 rlineto
          -223 vlineto
          685 -171 rlineto
          -18 vlineto
          endchar
        </CharString>
        <CharString name="greekquestionmark">
          31 callgsubr
        </CharString>
        <CharString name="guarani">
          717 600 rmoveto
          272 hlineto
          -5 -252 -91 -138 -176 -20 rrcurveto
          -129 7 rmoveto
          -181 38 -100 185 303 vvcurveto
          295 93 188 188 37 vhcurveto
          619 -459 rmoveto
          -490 465 hlineto
          143 -15 81 -90 27 -145 rrcurveto
          224 hlineto
          -46 274 -156 171 -273 18 rrcurveto
          129 -129 -132 vlineto
          -349 -34 -173 -270 -435 vvcurveto
          -438 181 -270 341 -36 vhcurveto
          -143 129 141 vlineto
          300 22 190 232 378 vvcurveto
          endchar
        </CharString>
        <CharString name="guillemotleft">
          330 78 callsubr
          486 6 rmoveto
          343 419 rlineto
          -225 hlineto
          -345 -419 rlineto
          -6 vlineto
          345 -418 rlineto
          225 hlineto
          -343 418 rlineto
          endchar
        </CharString>
        <CharString name="guillemotright">
          448 636 21 callgsubr
          485 -6 21 callgsubr
          endchar
        </CharString>
        <CharString name="guilsingleright">
          692 636 21 callgsubr
          endchar
        </CharString>
        <CharString name="guilsinglleft">
          574 78 callsubr
          endchar
        </CharString>
        <CharString name="h">
          158 hmoveto
          -87 callgsubr
          endchar
        </CharString>
        <CharString name="hacyrillic">
          636 390 rmoveto
          241 -390 rlineto
          262 hlineto
          -362 555 -60 callgsubr
          endchar
        </CharString>
        <CharString name="hardsigncyrillic">
          557 188 rmoveto
          385 198 vlineto
          123 73 -76 -117 -116 -72 -76 -124 hvcurveto
          -198 571 rmoveto
          336 -509 -187 280 -908 459 vlineto
          246 148 148 231 233 -148 147 -246 hvcurveto
          endchar
        </CharString>
        <CharString name="hbar">
          -47 callgsubr
        </CharString>
</ttFont>
